<svg xmlns="http://www.w3.org/2000/svg" width="141" height="141" viewBox="0 0 141 141">
  <g id="Grupo_1071997" data-name="Grupo 1071997" transform="translate(-269 -958)">
    <path id="Trazado_609142" data-name="Trazado 609142" d="M70.5,0A70.5,70.5,0,1,1,0,70.5,70.5,70.5,0,0,1,70.5,0Z" transform="translate(269 958)" fill="#0a5e6b"/>
    <g id="Grupo_1072102" data-name="Grupo 1072102" transform="translate(299.586 988.586)">
      <path id="Trazado_838745" data-name="Trazado 838745" d="M23,27H41.829v2.511H23Z" transform="translate(5.616 6.638)" fill="#fff"/>
      <path id="Trazado_838746" data-name="Trazado 838746" d="M40,27h5.021v2.511H40Z" transform="translate(9.956 6.638)" fill="#fff"/>
      <path id="Trazado_838747" data-name="Trazado 838747" d="M20,31H50.127v2.511H20Z" transform="translate(4.851 7.659)" fill="#fff"/>
      <path id="Trazado_838748" data-name="Trazado 838748" d="M20,35H50.127v2.511H20Z" transform="translate(4.851 8.68)" fill="#fff"/>
      <path id="Trazado_838749" data-name="Trazado 838749" d="M75.062,1H57.488a3.766,3.766,0,0,0-3.766,3.766V14.808a3.766,3.766,0,0,0,3.766,3.766H65.02V32.382a1.255,1.255,0,0,1-1.255,1.255H60V31.127a3.766,3.766,0,0,0-3.766-3.766H41.169V18.574h3.766A3.766,3.766,0,0,0,48.7,14.808V4.766A3.766,3.766,0,0,0,44.935,1H34.893a3.766,3.766,0,0,0-3.766,3.766V14.808a3.766,3.766,0,0,0,3.766,3.766h3.766v8.787H23.6a3.766,3.766,0,0,0-3.766,3.766v2.511H16.064a1.255,1.255,0,0,1-1.255-1.255V18.574H22.34a3.766,3.766,0,0,0,3.766-3.766V4.766A3.766,3.766,0,0,0,22.34,1H4.766A3.766,3.766,0,0,0,1,4.766V14.808a3.766,3.766,0,0,0,3.766,3.766H12.3V32.382a3.766,3.766,0,0,0,3.766,3.766h3.766V43.68H16.064A3.766,3.766,0,0,0,12.3,47.446V61.254H4.766A3.766,3.766,0,0,0,1,65.02V75.062a3.766,3.766,0,0,0,3.766,3.766H22.34a3.766,3.766,0,0,0,3.766-3.766V65.02a3.766,3.766,0,0,0-3.766-3.766H14.808V47.446a1.255,1.255,0,0,1,1.255-1.255h3.766V48.7A3.766,3.766,0,0,0,23.6,52.467H38.659v8.787H34.893a3.766,3.766,0,0,0-3.766,3.766V75.062a3.766,3.766,0,0,0,3.766,3.766H44.935A3.766,3.766,0,0,0,48.7,75.062V65.02a3.766,3.766,0,0,0-3.766-3.766H41.169V52.467H56.233A3.766,3.766,0,0,0,60,48.7V46.191h3.766a1.255,1.255,0,0,1,1.255,1.255V61.254H57.488a3.766,3.766,0,0,0-3.766,3.766V75.062a3.766,3.766,0,0,0,3.766,3.766H75.062a3.766,3.766,0,0,0,3.766-3.766V65.02a3.766,3.766,0,0,0-3.766-3.766H67.53V47.446a3.766,3.766,0,0,0-3.766-3.766H60V36.148h3.766a3.766,3.766,0,0,0,3.766-3.766V18.574h7.532a3.766,3.766,0,0,0,3.766-3.766V4.766A3.766,3.766,0,0,0,75.062,1ZM33.638,14.808V4.766a1.255,1.255,0,0,1,1.255-1.255H44.935a1.255,1.255,0,0,1,1.255,1.255V14.808a1.255,1.255,0,0,1-1.255,1.255H34.893A1.255,1.255,0,0,1,33.638,14.808Zm-30.127,0V4.766A1.255,1.255,0,0,1,4.766,3.511H22.34A1.255,1.255,0,0,1,23.6,4.766V14.808a1.255,1.255,0,0,1-1.255,1.255H4.766A1.255,1.255,0,0,1,3.511,14.808ZM23.6,65.02V75.062a1.255,1.255,0,0,1-1.255,1.255H4.766a1.255,1.255,0,0,1-1.255-1.255V65.02a1.255,1.255,0,0,1,1.255-1.255H22.34A1.255,1.255,0,0,1,23.6,65.02Zm22.6,0V75.062a1.255,1.255,0,0,1-1.255,1.255H34.893a1.255,1.255,0,0,1-1.255-1.255V65.02a1.255,1.255,0,0,1,1.255-1.255H44.935A1.255,1.255,0,0,1,46.191,65.02Zm30.127,0V75.062a1.255,1.255,0,0,1-1.255,1.255H57.488a1.255,1.255,0,0,1-1.255-1.255V65.02a1.255,1.255,0,0,1,1.255-1.255H75.062A1.255,1.255,0,0,1,76.318,65.02ZM57.488,48.7a1.255,1.255,0,0,1-1.255,1.255H23.6A1.255,1.255,0,0,1,22.34,48.7V31.127A1.255,1.255,0,0,1,23.6,29.872H56.233a1.255,1.255,0,0,1,1.255,1.255ZM76.318,14.808a1.255,1.255,0,0,1-1.255,1.255H57.488a1.255,1.255,0,0,1-1.255-1.255V4.766a1.255,1.255,0,0,1,1.255-1.255H75.062a1.255,1.255,0,0,1,1.255,1.255Z" fill="#fff"/>
    </g>
  </g>
</svg>
