<svg xmlns="http://www.w3.org/2000/svg" width="146" height="146" viewBox="0 0 146 146">
  <g id="Grupo_1072005" data-name="Grupo 1072005" transform="translate(-268.516 -957.516)">
    <circle id="Elipse_5614" data-name="Elipse 5614" cx="73" cy="73" r="73" transform="translate(268.516 957.516)" fill="#0a5e6b"/>
    <g id="Grupo_1072114" data-name="Grupo 1072114" transform="translate(303.516 998.488)">
      <path id="Trazado_838750" data-name="Trazado 838750" d="M69.676,0H6.322A6.331,6.331,0,0,0,0,6.324V49.909a6.331,6.331,0,0,0,6.323,6.324h21.5l-1.383,10.21H25.244a1.113,1.113,0,1,0,0,2.227h25.51a1.113,1.113,0,1,0,0-2.227H49.561l-1.383-10.21h21.5A6.33,6.33,0,0,0,76,49.909V6.324A6.331,6.331,0,0,0,69.676,0ZM6.322,2.227H69.676a4.1,4.1,0,0,1,4.1,4.1V41.441H2.226V6.324a4.1,4.1,0,0,1,4.1-4.1Zm63.354,51.78H36.795a1.113,1.113,0,0,0,0,2.227h9.136l1.383,10.21H28.684l1.383-10.21h1.759a1.113,1.113,0,1,0,0-2.227H6.322a4.1,4.1,0,0,1-4.1-4.1V43.667H73.773v6.241a4.1,4.1,0,0,1-4.1,4.1Zm0,0" transform="translate(0 0)" fill="#fff"/>
      <path id="Trazado_838751" data-name="Trazado 838751" d="M238.4,308.34a3.068,3.068,0,1,0,3.067,3.068A3.071,3.071,0,0,0,238.4,308.34Zm0,3.909a.841.841,0,1,1,.841-.841A.842.842,0,0,1,238.4,312.249Zm0,0" transform="translate(-200.404 -262.571)" fill="#fff"/>
      <path id="Trazado_838752" data-name="Trazado 838752" d="M37.043,69.139h63.849a1.114,1.114,0,0,0,1.113-1.113V37.1a1.114,1.114,0,0,0-1.113-1.113H37.043A1.113,1.113,0,0,0,35.93,37.1V68.025A1.113,1.113,0,0,0,37.043,69.139Zm62.736-2.227H80.722v-28.7H99.779Zm-61.622-28.7H57.212v2.777a1.113,1.113,0,1,0,2.227,0V38.216H78.5v28.7H59.439V45.641a1.113,1.113,0,1,0-2.227,0V66.912H38.156Zm0,0" transform="translate(-30.597 -30.647)" fill="#fff"/>
      <path id="Trazado_838753" data-name="Trazado 838753" d="M76.36,160.27a4.555,4.555,0,0,0-3.1-1.172H66.093a4.557,4.557,0,0,0-3.1,1.178l-.011.01a3.929,3.929,0,0,0-1.233,2.884v2.763a1.113,1.113,0,0,0,1.113,1.113H76.492a1.113,1.113,0,0,0,1.113-1.113V163.24a3.968,3.968,0,0,0-1.245-2.97Zm-.982,4.549H63.972v-1.65a1.7,1.7,0,0,1,.529-1.259,2.333,2.333,0,0,1,1.592-.586h7.168a2.34,2.34,0,0,1,1.593.585,1.728,1.728,0,0,1,.525,1.331v1.578Zm0,0" transform="translate(-52.581 -135.482)" fill="#fff"/>
      <path id="Trazado_838754" data-name="Trazado 838754" d="M92.949,101.042l1.093.667a2.368,2.368,0,0,0,2.473,0l1.093-.667a2.393,2.393,0,0,0,1.14-2.031V96.082a2.573,2.573,0,0,0-2.569-2.571h-1.8a2.573,2.573,0,0,0-2.569,2.571v2.928A2.393,2.393,0,0,0,92.949,101.042Zm1.087-4.959a.344.344,0,0,1,.342-.344h1.8a.344.344,0,0,1,.342.344v2.928a.153.153,0,0,1-.072.13l-1.094.667a.148.148,0,0,1-.154,0l-1.093-.667a.153.153,0,0,1-.072-.13Zm0,0" transform="translate(-78.181 -79.631)" fill="#fff"/>
      <path id="Trazado_838755" data-name="Trazado 838755" d="M206.191,167.046h13.633a1.113,1.113,0,0,0,1.113-1.113v-2.692a3.971,3.971,0,0,0-1.245-2.971,4.56,4.56,0,0,0-3.1-1.172h-7.168a4.553,4.553,0,0,0-3.1,1.178l-.011.01a3.928,3.928,0,0,0-1.233,2.884v2.763a1.113,1.113,0,0,0,1.113,1.113Zm1.113-3.876a1.7,1.7,0,0,1,.529-1.259,2.333,2.333,0,0,1,1.592-.586h7.168a2.34,2.34,0,0,1,1.593.585,1.728,1.728,0,0,1,.525,1.331v1.578H207.3Zm0,0" transform="translate(-174.637 -135.482)" fill="#fff"/>
      <path id="Trazado_838756" data-name="Trazado 838756" d="M236.28,101.042l1.094.667a2.367,2.367,0,0,0,2.472,0l1.094-.667a2.4,2.4,0,0,0,1.14-2.031V96.082a2.573,2.573,0,0,0-2.569-2.571h-1.8a2.573,2.573,0,0,0-2.569,2.571v2.928A2.394,2.394,0,0,0,236.28,101.042Zm1.087-4.959a.344.344,0,0,1,.342-.344h1.8a.343.343,0,0,1,.342.344v2.928a.153.153,0,0,1-.072.13l-1.093.667a.149.149,0,0,1-.155,0l-1.093-.667a.153.153,0,0,1-.072-.13Zm0,0" transform="translate(-200.237 -79.631)" fill="#fff"/>
      <path id="Trazado_838757" data-name="Trazado 838757" d="M349.574,167.046h2.176a1.113,1.113,0,0,0,0-2.227h-1.062v-1.65a1.7,1.7,0,0,1,.529-1.259,2.333,2.333,0,0,1,1.592-.586h7.168a2.337,2.337,0,0,1,1.592.585,1.726,1.726,0,0,1,.525,1.331v1.578h-5.3a1.113,1.113,0,0,0,0,2.227h6.413a1.113,1.113,0,0,0,1.113-1.113v-2.692a3.968,3.968,0,0,0-1.245-2.97,4.555,4.555,0,0,0-3.1-1.172h-7.168a4.556,4.556,0,0,0-3.1,1.178l-.011.01a3.926,3.926,0,0,0-1.233,2.884v2.763A1.113,1.113,0,0,0,349.574,167.046Zm0,0" transform="translate(-296.737 -135.482)" fill="#fff"/>
      <path id="Trazado_838758" data-name="Trazado 838758" d="M379.663,101.042l1.093.667a2.368,2.368,0,0,0,2.473,0l1.093-.667a2.393,2.393,0,0,0,1.14-2.031V96.082a2.573,2.573,0,0,0-2.569-2.571h-1.8a2.573,2.573,0,0,0-2.569,2.571v2.928A2.393,2.393,0,0,0,379.663,101.042Zm1.087-4.959a.343.343,0,0,1,.342-.344h1.8a.344.344,0,0,1,.342.344v2.928a.152.152,0,0,1-.073.13l-1.093.667a.148.148,0,0,1-.154,0l-1.093-.667a.154.154,0,0,1-.073-.13V96.082Zm0,0" transform="translate(-322.337 -79.631)" fill="#fff"/>
    </g>
  </g>
</svg>
