<svg xmlns="http://www.w3.org/2000/svg" xmlns:xlink="http://www.w3.org/1999/xlink" width="400" height="456.13" viewBox="0 0 400 456.13">
  <defs>
    <clipPath id="clip-path">
      <rect id="Rectángulo_377629" data-name="Rectángulo 377629" width="400" height="456.13" fill="#fff" stroke="#707070" stroke-width="1"/>
    </clipPath>
    <clipPath id="clip-path-2">
      <rect id="Rectángulo_377628" data-name="Rectángulo 377628" width="578.363" height="454.988" transform="translate(0 0)" fill="#faffd7"/>
    </clipPath>
    <clipPath id="clip-path-3">
      <rect id="Rectángulo_377629-2" data-name="Rectángulo 377629" width="351" height="455" transform="translate(-0.013)" fill="#fff" stroke="#707070" stroke-width="1"/>
    </clipPath>
    <clipPath id="clip-path-4">
      <rect id="Rectángulo_377628-2" data-name="Rectángulo 377628" width="507.861" height="453.717" transform="translate(0 0)" fill="#faffd7"/>
    </clipPath>
    <clipPath id="clip-path-5">
      <rect id="Rectángulo_377695" data-name="Rectángulo 377695" width="455.786" height="454.834" fill="none"/>
    </clipPath>
    <clipPath id="clip-path-8">
      <rect id="Rectángulo_377680" data-name="Rectángulo 377680" width="14.863" height="30.695" fill="none"/>
    </clipPath>
    <clipPath id="clip-path-10">
      <rect id="Rectángulo_377684" data-name="Rectángulo 377684" width="31.539" height="19.62" fill="none"/>
    </clipPath>
    <clipPath id="clip-path-11">
      <rect id="Rectángulo_377687" data-name="Rectángulo 377687" width="62.224" height="297.64" fill="#b40e0e"/>
    </clipPath>
    <clipPath id="clip-path-13">
      <rect id="Rectángulo_377690" data-name="Rectángulo 377690" width="83.102" height="89.813" fill="none"/>
    </clipPath>
    <clipPath id="clip-path-14">
      <rect id="Rectángulo_377691" data-name="Rectángulo 377691" width="7.605" height="5.382" fill="none"/>
    </clipPath>
    <clipPath id="clip-path-15">
      <rect id="Rectángulo_377692" data-name="Rectángulo 377692" width="34.676" height="3.662" fill="none"/>
    </clipPath>
    <clipPath id="clip-path-16">
      <rect id="Rectángulo_377693" data-name="Rectángulo 377693" width="20.871" height="2.466" fill="none"/>
    </clipPath>
  </defs>
  <g id="Grupo_1072126" data-name="Grupo 1072126" transform="translate(-1020 -3075.87)">
    <g id="Grupo_1072103" data-name="Grupo 1072103" transform="translate(0 2058.87)">
      <g id="Enmascarar_grupo_87" data-name="Enmascarar grupo 87" transform="translate(1020 1017)" clip-path="url(#clip-path)">
        <g id="Grupo_1072014" data-name="Grupo 1072014" transform="translate(19 0.262)">
          <g id="Grupo_1072013" data-name="Grupo 1072013" transform="translate(0 0)" clip-path="url(#clip-path-2)">
            <path id="Trazado_838415" data-name="Trazado 838415" d="M577.188,332.784c-6.7,38.683-33.083,80.248-72.9,97.587q-.831.361-1.679.713c-28.96,12.014-75.009,16.3-114.661,15.35a349.06,349.06,0,0,1-41.931-3.318c-15-2.229-29.51-1.725-44.3-.039-6.227.708-12.505,1.627-18.89,2.641-34.487,5.473-72.088,13.688-121.859,6.384q-7.489-1.1-15.359-2.684a354.133,354.133,0,0,1-65.362-20.425c-33.165-13.747-63.707-35.574-75.831-66.06-3.1-7.8-5.071-16.1-4.218-24.329,1.695-16.3,13.921-29.974,24.418-43.477a281.553,281.553,0,0,0,33.126-54.163c4.865-10.49,9.1-21.6,8.2-32.906-1.957-24.7-26.872-42.606-38.875-64.99a67.322,67.322,0,0,1,.863-64.935c11.4-20.028,33.622-35,58.545-39.454C140.778,28.987,198.089,66.9,249.957,49.717,276.87,40.8,304.992,23.672,331.18,13.208,443.127-31.521,535.037,46.592,530.6,109.942c-3.67,52.414-22.633,53.9-49.226,96.446a28.7,28.7,0,0,0-4.29,19.08c1.9,13.4,16.517,22.54,30.935,27.121s30.188,6.5,43.02,13.887c23.507,13.533,30.382,41.85,26.148,66.308" transform="translate(0.001 -0.002)" fill="#faffd7"/>
          </g>
        </g>
      </g>
    </g>
    <g id="Grupo_1072104" data-name="Grupo 1072104" transform="translate(24.73 2059)">
      <g id="Enmascarar_grupo_87-2" data-name="Enmascarar grupo 87" transform="translate(1020.282 1017)" clip-path="url(#clip-path-3)">
        <g id="Grupo_1072014-2" data-name="Grupo 1072014" transform="translate(16.431 0.261)">
          <g id="Grupo_1072013-2" data-name="Grupo 1072013" transform="translate(0 0)" clip-path="url(#clip-path-4)">
            <path id="Trazado_838415-2" data-name="Trazado 838415" d="M506.829,331.855c-5.88,38.575-29.051,80.024-64.016,97.314q-.729.36-1.474.711c-25.429,11.98-65.865,16.25-100.684,15.307a270.722,270.722,0,0,1-36.819-3.309c-13.173-2.223-25.913-1.72-38.9-.039-5.468.706-10.981,1.622-16.587,2.634-30.283,5.458-63.3,13.65-107,6.367q-6.576-1.094-13.487-2.676c-17.35-3.993-36.339-10.455-57.395-20.367-29.122-13.708-55.941-35.474-66.587-65.875-2.723-7.781-4.453-16.05-3.7-24.261C1.663,321.407,12.4,307.77,21.616,294.3A289.96,289.96,0,0,0,50.7,240.293c4.272-10.46,7.987-21.54,7.2-32.814-1.719-24.63-23.6-42.487-34.136-64.809a73.979,73.979,0,0,1,52.166-104.1c47.686-9.667,98.011,28.136,143.555,11.006,23.633-8.888,48.327-25.973,71.322-36.407,98.3-44.6,179.007,33.291,175.112,96.464C462.7,161.9,446.047,163.388,422.7,205.812a31.784,31.784,0,0,0-3.767,19.027c1.666,13.361,14.5,22.477,27.164,27.045s26.508,6.483,37.776,13.848c20.641,13.495,26.678,41.733,22.961,66.123" transform="translate(0.001 -0.002)" fill="#faffd7"/>
          </g>
        </g>
        <g id="Grupo_1072096" data-name="Grupo 1072096" transform="translate(-17.815 -0.856)">
          <g id="Grupo_1072095" data-name="Grupo 1072095" clip-path="url(#clip-path-5)">
            <g id="Grupo_1072067" data-name="Grupo 1072067">
              <g id="Grupo_1072066" data-name="Grupo 1072066" clip-path="url(#clip-path-5)">
                <path id="Trazado_838593" data-name="Trazado 838593" d="M455.787,412.536c0,.158-102.04.286-227.882.286-125.887,0-227.9-.128-227.9-.286s102.017-.286,227.9-.286c125.843,0,227.882.128,227.882.286" transform="translate(0 41.544)" fill="#263238"/>
              </g>
            </g>
            <g id="Grupo_1072072" data-name="Grupo 1072072">
              <g id="Grupo_1072071" data-name="Grupo 1072071" clip-path="url(#clip-path-5)">
                <path id="Trazado_838594" data-name="Trazado 838594" d="M329.416,376.376c-1.949,2.785-5.739,1.863-7.5.163s-2.5-4.163-3.176-6.512c-1.544-5.367-3.1-11-1.953-16.464a9.146,9.146,0,0,1,2.1-4.476,4.779,4.779,0,0,1,4.529-1.508c1.91.505,3.1,2.377,3.956,4.157a39.249,39.249,0,0,1,3.878,16.843c.01,2.712-.31,5.558-1.841,7.8" transform="translate(-2.251 35.015)" fill="#1fd27a"/>
                <g id="Grupo_1072070" data-name="Grupo 1072070" transform="translate(314.143 382.47)" opacity="0.2">
                  <g id="Grupo_1072069" data-name="Grupo 1072069">
                    <g id="Grupo_1072068" data-name="Grupo 1072068" clip-path="url(#clip-path-8)">
                      <path id="Trazado_838595" data-name="Trazado 838595" d="M329.416,376.376c-1.949,2.785-5.739,1.863-7.5.163s-2.5-4.163-3.176-6.512c-1.544-5.367-3.1-11-1.953-16.464a9.146,9.146,0,0,1,2.1-4.476,4.779,4.779,0,0,1,4.529-1.508c1.91.505,3.1,2.377,3.956,4.157a39.249,39.249,0,0,1,3.878,16.843c.01,2.712-.31,5.558-1.841,7.8" transform="translate(-316.394 -347.456)"/>
                    </g>
                  </g>
                </g>
                <path id="Trazado_838596" data-name="Trazado 838596" d="M323.119,386.683a16.9,16.9,0,0,0-10.483-1.274,8.7,8.7,0,0,0-5.178,2.312c-1.294,1.429-1.54,3.942-.054,5.169a4.96,4.96,0,0,0,3.265.829c2.772-.032,5.846-.521,8.06,1.147,1.263.951,2.1,2.533,3.614,3a3.571,3.571,0,0,0,3.929-1.748,6.1,6.1,0,0,0,.444-4.5,6.874,6.874,0,0,0-3.6-4.933" transform="translate(-2.523 38.81)" fill="#1fd27a"/>
                <path id="Trazado_838597" data-name="Trazado 838597" d="M333.275,379.551a10.133,10.133,0,0,1-1.576-9.325,17.966,17.966,0,0,1,5.523-8.01,29.724,29.724,0,0,1,9.889-5.835,10.553,10.553,0,0,1,4.447-.756,4.668,4.668,0,0,1,3.733,2.259c1.04,1.985.043,4.392-1.037,6.357a75.384,75.384,0,0,1-6.495,9.892c-1.947,2.51-4.177,4.985-7.144,6.119s-6.05,1-7.623-1.057" transform="translate(-0.02 35.835)" fill="#1fd27a"/>
                <path id="Trazado_838598" data-name="Trazado 838598" d="M329.676,414.233a5.981,5.981,0,0,1-.176-1.266c-.09-.92-.2-2.077-.337-3.452a50.361,50.361,0,0,0-.777-5.066,39.13,39.13,0,0,0-1.842-5.978,22.093,22.093,0,0,0-3.051-5.409,11.422,11.422,0,0,0-3.86-3.209,10.785,10.785,0,0,0-3.251-1.012,5.966,5.966,0,0,1-1.258-.183,5.9,5.9,0,0,1,1.281-.02,9.834,9.834,0,0,1,3.388.883,11.371,11.371,0,0,1,4.072,3.236,21.526,21.526,0,0,1,3.164,5.517,36.4,36.4,0,0,1,1.828,6.076,43.048,43.048,0,0,1,.674,5.13c.109,1.466.151,2.654.171,3.474a6.091,6.091,0,0,1-.025,1.278" transform="translate(-1.642 39.164)" fill="#263238"/>
                <path id="Trazado_838599" data-name="Trazado 838599" d="M328.719,414.7a2.582,2.582,0,0,1-.034-.588c0-.44,0-1,0-1.679,0-1.456,0-3.565-.075-6.169-.129-5.208-.577-12.4-1.443-20.3s-2.029-15.013-3.082-20.115c-.249-1.278-.5-2.429-.736-3.437s-.417-1.88-.6-2.585c-.16-.663-.29-1.2-.392-1.631a2.559,2.559,0,0,1-.1-.58,2.441,2.441,0,0,1,.2.55c.128.423.289.956.488,1.609.216.7.437,1.563.69,2.568s.54,2.152.814,3.428a190.528,190.528,0,0,1,3.241,20.134c.867,7.918,1.258,15.128,1.293,20.348.031,2.611-.025,4.723-.091,6.182-.042.681-.076,1.237-.1,1.678a2.535,2.535,0,0,1-.072.583" transform="translate(-0.924 36.039)" fill="#263238"/>
                <path id="Trazado_838600" data-name="Trazado 838600" d="M328.1,400.406a11.188,11.188,0,0,1,.012-1.754c.065-1.127.22-2.756.537-4.752a62.758,62.758,0,0,1,1.545-6.924,61.325,61.325,0,0,1,2.9-8.192,43.636,43.636,0,0,1,8.5-13.238,21.434,21.434,0,0,1,2-1.859c.307-.26.578-.518.854-.723l.776-.535a11.362,11.362,0,0,1,1.476-.946,52.544,52.544,0,0,0-4.84,4.318,45.956,45.956,0,0,0-8.289,13.191,65.078,65.078,0,0,0-2.912,8.117,70.262,70.262,0,0,0-1.645,6.853c-.362,1.976-.572,3.589-.7,4.706a11.151,11.151,0,0,1-.215,1.737" transform="translate(-0.337 36.428)" fill="#263238"/>
              </g>
            </g>
            <g id="Grupo_1072080" data-name="Grupo 1072080" transform="translate(-59.711 6.147)">
              <g id="Grupo_1072079" data-name="Grupo 1072079" clip-path="url(#clip-path-5)">
                <path id="Trazado_838601" data-name="Trazado 838601" d="M351.561,356.477l-238.15-30.286L154.893,0,398.954,31.037a4.87,4.87,0,0,1,4.218,5.447L363.671,347.1a10.83,10.83,0,0,1-12.11,9.378" transform="translate(11.429)" fill="#455a64"/>
                <rect id="Rectángulo_377682" data-name="Rectángulo 377682" width="15.993" height="29.76" transform="translate(392.611 101.568) rotate(-82.752)" fill="#e8505b"/>
                <g id="Grupo_1072075" data-name="Grupo 1072075" transform="translate(392.611 85.703)" opacity="0.3">
                  <g id="Grupo_1072074" data-name="Grupo 1072074">
                    <g id="Grupo_1072073" data-name="Grupo 1072073" clip-path="url(#clip-path-10)">
                      <rect id="Rectángulo_377683" data-name="Rectángulo 377683" width="15.993" height="29.76" transform="translate(-0.001 15.865) rotate(-82.752)"/>
                    </g>
                  </g>
                </g>
                <rect id="Rectángulo_377685" data-name="Rectángulo 377685" width="312.681" height="232.158" transform="translate(136.024 320.294) rotate(-82.752)" fill="#e0e0e0"/>
                <rect id="Rectángulo_377686" data-name="Rectángulo 377686" width="312.681" height="232.158" transform="translate(126.236 315.204) rotate(-82.752)" fill="#fafafa"/>
                <line id="Línea_139" data-name="Línea 139" x2="229.495" y2="29.185" transform="translate(169.18 35.721)" fill="none" stroke="#e0e0e0" stroke-miterlimit="10" stroke-width="1"/>
                <line id="Línea_140" data-name="Línea 140" x2="229.495" y2="29.185" transform="translate(168.669 51.329)" fill="none" stroke="#e0e0e0" stroke-miterlimit="10" stroke-width="1"/>
                <line id="Línea_141" data-name="Línea 141" x2="229.495" y2="29.185" transform="translate(166.707 66.753)" fill="none" stroke="#e0e0e0" stroke-miterlimit="10" stroke-width="1"/>
                <line id="Línea_142" data-name="Línea 142" x2="229.495" y2="29.185" transform="translate(164.746 82.177)" fill="none" stroke="#e0e0e0" stroke-miterlimit="10" stroke-width="1"/>
                <line id="Línea_143" data-name="Línea 143" x2="229.495" y2="29.185" transform="translate(162.784 97.6)" fill="none" stroke="#e0e0e0" stroke-miterlimit="10" stroke-width="1"/>
                <line id="Línea_144" data-name="Línea 144" x2="229.495" y2="29.185" transform="translate(160.823 113.024)" fill="none" stroke="#e0e0e0" stroke-miterlimit="10" stroke-width="1"/>
                <line id="Línea_145" data-name="Línea 145" x2="229.495" y2="29.185" transform="translate(158.862 128.448)" fill="none" stroke="#e0e0e0" stroke-miterlimit="10" stroke-width="1"/>
                <line id="Línea_146" data-name="Línea 146" x2="229.495" y2="29.185" transform="translate(156.9 143.871)" fill="none" stroke="#e0e0e0" stroke-miterlimit="10" stroke-width="1"/>
                <line id="Línea_147" data-name="Línea 147" x2="229.495" y2="29.185" transform="translate(154.939 159.295)" fill="none" stroke="#e0e0e0" stroke-miterlimit="10" stroke-width="1"/>
                <line id="Línea_148" data-name="Línea 148" x2="229.495" y2="29.185" transform="translate(152.977 174.719)" fill="none" stroke="#e0e0e0" stroke-miterlimit="10" stroke-width="1"/>
                <line id="Línea_149" data-name="Línea 149" x2="229.495" y2="29.185" transform="translate(151.016 190.142)" fill="none" stroke="#e0e0e0" stroke-miterlimit="10" stroke-width="1"/>
                <line id="Línea_150" data-name="Línea 150" x2="229.495" y2="29.185" transform="translate(149.054 205.566)" fill="none" stroke="#e0e0e0" stroke-miterlimit="10" stroke-width="1"/>
                <line id="Línea_151" data-name="Línea 151" x2="229.495" y2="29.185" transform="translate(147.093 220.99)" fill="none" stroke="#e0e0e0" stroke-miterlimit="10" stroke-width="1"/>
                <line id="Línea_152" data-name="Línea 152" x2="229.495" y2="29.185" transform="translate(145.131 236.413)" fill="#455a64"/>
                <line id="Línea_153" data-name="Línea 153" x2="229.495" y2="29.185" transform="translate(143.17 251.837)" fill="none" stroke="#e0e0e0" stroke-miterlimit="10" stroke-width="1"/>
                <line id="Línea_154" data-name="Línea 154" x2="229.495" y2="29.185" transform="translate(141.209 267.261)" fill="none" stroke="#e0e0e0" stroke-miterlimit="10" stroke-width="1"/>
                <line id="Línea_155" data-name="Línea 155" x2="229.495" y2="29.185" transform="translate(139.247 282.684)" fill="none" stroke="#e0e0e0" stroke-miterlimit="10" stroke-width="1"/>
                <line id="Línea_156" data-name="Línea 156" x2="229.495" y2="29.185" transform="translate(137.286 298.108)" fill="none" stroke="#e0e0e0" stroke-miterlimit="10" stroke-width="1"/>
                <line id="Línea_157" data-name="Línea 157" x1="39.31" y2="309.113" transform="translate(162.905 11.321)" fill="none" stroke="#e8505b" stroke-miterlimit="10" stroke-width="1"/>
                <path id="Trazado_838602" data-name="Trazado 838602" d="M169.592,22.433a4.72,4.72,0,1,1-4.087-5.278,4.72,4.72,0,0,1,4.087,5.278" transform="translate(16.143 1.725)" fill="#455a64"/>
                <path id="Trazado_838603" data-name="Trazado 838603" d="M165.616,53.7a4.72,4.72,0,1,1-4.087-5.278,4.721,4.721,0,0,1,4.087,5.278" transform="translate(15.742 4.876)" fill="#455a64"/>
                <path id="Trazado_838604" data-name="Trazado 838604" d="M161.64,84.965a4.72,4.72,0,1,1-4.087-5.278,4.72,4.72,0,0,1,4.087,5.278" transform="translate(15.342 8.027)" fill="#455a64"/>
                <path id="Trazado_838605" data-name="Trazado 838605" d="M157.664,116.23a4.721,4.721,0,1,1-4.088-5.277,4.722,4.722,0,0,1,4.088,5.277" transform="translate(14.941 11.177)" fill="#455a64"/>
                <path id="Trazado_838606" data-name="Trazado 838606" d="M153.687,147.5a4.72,4.72,0,1,1-4.087-5.278,4.721,4.721,0,0,1,4.087,5.278" transform="translate(14.54 14.328)" fill="#455a64"/>
                <path id="Trazado_838607" data-name="Trazado 838607" d="M149.711,178.762a4.72,4.72,0,1,1-4.087-5.278,4.72,4.72,0,0,1,4.087,5.278" transform="translate(14.139 17.479)" fill="#455a64"/>
                <path id="Trazado_838608" data-name="Trazado 838608" d="M145.735,210.028a4.72,4.72,0,1,1-4.087-5.278,4.72,4.72,0,0,1,4.087,5.278" transform="translate(13.739 20.63)" fill="#455a64"/>
                <path id="Trazado_838609" data-name="Trazado 838609" d="M141.759,241.294a4.72,4.72,0,1,1-4.087-5.278,4.721,4.721,0,0,1,4.087,5.278" transform="translate(13.338 23.781)" fill="#455a64"/>
                <path id="Trazado_838610" data-name="Trazado 838610" d="M137.783,272.559a4.72,4.72,0,1,1-4.087-5.278,4.72,4.72,0,0,1,4.087,5.278" transform="translate(12.937 26.931)" fill="#455a64"/>
                <path id="Trazado_838611" data-name="Trazado 838611" d="M148.309,36.4c-.016.057-.195.055-.524-.006a8.382,8.382,0,0,1-1.419-.381,10.209,10.209,0,0,1-2.085-1.08,10.105,10.105,0,0,1-2.314-2.137,11.412,11.412,0,0,1-1.805-3.385,14.093,14.093,0,0,1-.714-4.328,10.467,10.467,0,0,1,.985-4.856A10.794,10.794,0,0,1,144,16.282a12.406,12.406,0,0,1,4.9-1.955,14.885,14.885,0,0,1,4.853,0,19.711,19.711,0,0,1,7.47,2.963,26.959,26.959,0,0,1,4.182,3.322c.9.881,1.328,1.431,1.252,1.517s-.664-.29-1.678-1a47.434,47.434,0,0,0-4.377-2.795,20.379,20.379,0,0,0-7.078-2.439,14.025,14.025,0,0,0-4.33.086,11.109,11.109,0,0,0-4.224,1.721,9.372,9.372,0,0,0-3.037,3.3,9.22,9.22,0,0,0-.893,4.085,13.378,13.378,0,0,0,.49,3.89,10.832,10.832,0,0,0,1.424,3.093,10.2,10.2,0,0,0,1.91,2.087,12.731,12.731,0,0,0,1.792,1.243c.52.313.966.481,1.246.659.285.163.43.277.414.334" transform="translate(14.053 1.424)" fill="#e8505b"/>
                <path id="Trazado_838612" data-name="Trazado 838612" d="M144.333,67.663c-.017.057-.195.054-.524-.007a8.277,8.277,0,0,1-1.419-.381,10.3,10.3,0,0,1-4.4-3.216,11.391,11.391,0,0,1-1.805-3.384,14.106,14.106,0,0,1-.714-4.329,10.463,10.463,0,0,1,.985-4.854,10.8,10.8,0,0,1,3.564-3.944,12.422,12.422,0,0,1,4.9-1.955,14.946,14.946,0,0,1,4.853,0,19.711,19.711,0,0,1,7.47,2.963,26.953,26.953,0,0,1,4.182,3.323c.9.88,1.328,1.43,1.252,1.516s-.664-.29-1.678-1a47.2,47.2,0,0,0-4.377-2.795,20.348,20.348,0,0,0-7.078-2.44,14.026,14.026,0,0,0-4.33.087,11.107,11.107,0,0,0-4.224,1.719,9.375,9.375,0,0,0-3.037,3.3,9.217,9.217,0,0,0-.893,4.084,13.386,13.386,0,0,0,.49,3.891,10.825,10.825,0,0,0,1.424,3.092,10.168,10.168,0,0,0,1.91,2.087,12.729,12.729,0,0,0,1.792,1.243c.52.313.966.482,1.246.659s.43.277.414.335" transform="translate(13.652 4.575)" fill="#e8505b"/>
                <path id="Trazado_838613" data-name="Trazado 838613" d="M140.357,98.929c-.016.057-.195.054-.524-.007a8.278,8.278,0,0,1-1.419-.381,10.292,10.292,0,0,1-4.4-3.218,11.371,11.371,0,0,1-1.805-3.383,14.106,14.106,0,0,1-.714-4.329,10.47,10.47,0,0,1,.985-4.856,10.8,10.8,0,0,1,3.564-3.943,12.423,12.423,0,0,1,4.9-1.955,14.946,14.946,0,0,1,4.853,0,19.71,19.71,0,0,1,7.47,2.963,26.953,26.953,0,0,1,4.182,3.323c.9.88,1.328,1.43,1.252,1.516s-.663-.29-1.678-1a47.2,47.2,0,0,0-4.377-2.795,20.348,20.348,0,0,0-7.078-2.44,14.026,14.026,0,0,0-4.33.087,11.107,11.107,0,0,0-4.224,1.719,9.375,9.375,0,0,0-3.037,3.3,9.216,9.216,0,0,0-.893,4.084,13.386,13.386,0,0,0,.49,3.891A10.824,10.824,0,0,0,135,94.6a10.168,10.168,0,0,0,1.91,2.087,12.732,12.732,0,0,0,1.792,1.243c.52.313.966.482,1.246.659s.43.277.414.335" transform="translate(13.252 7.726)" fill="#e8505b"/>
                <path id="Trazado_838614" data-name="Trazado 838614" d="M136.381,130.195c-.017.057-.195.054-.524-.007a8.278,8.278,0,0,1-1.419-.381,10.3,10.3,0,0,1-4.4-3.216,11.391,11.391,0,0,1-1.805-3.384,14.106,14.106,0,0,1-.714-4.329,10.47,10.47,0,0,1,.985-4.856,10.8,10.8,0,0,1,3.564-3.943,12.422,12.422,0,0,1,4.9-1.955,14.945,14.945,0,0,1,4.853,0,19.711,19.711,0,0,1,7.47,2.963,26.952,26.952,0,0,1,4.182,3.323c.9.88,1.328,1.43,1.252,1.516s-.663-.29-1.678-1a47.193,47.193,0,0,0-4.377-2.795,20.349,20.349,0,0,0-7.078-2.44,14.026,14.026,0,0,0-4.33.087,11.106,11.106,0,0,0-4.224,1.719A9.385,9.385,0,0,0,130,114.8a9.216,9.216,0,0,0-.893,4.084,13.386,13.386,0,0,0,.49,3.891,10.825,10.825,0,0,0,1.424,3.092,10.169,10.169,0,0,0,1.91,2.087,12.639,12.639,0,0,0,1.792,1.243c.521.313.966.482,1.246.659s.43.277.414.335" transform="translate(12.851 10.876)" fill="#e8505b"/>
                <path id="Trazado_838615" data-name="Trazado 838615" d="M132.405,161.46c-.017.057-.195.054-.524-.007a8.275,8.275,0,0,1-1.419-.381,10.3,10.3,0,0,1-4.4-3.216,11.378,11.378,0,0,1-1.805-3.384,14.105,14.105,0,0,1-.714-4.329,10.47,10.47,0,0,1,.985-4.855,10.8,10.8,0,0,1,3.564-3.943,12.423,12.423,0,0,1,4.9-1.955,14.946,14.946,0,0,1,4.853,0,19.711,19.711,0,0,1,7.47,2.963,26.953,26.953,0,0,1,4.182,3.323c.9.88,1.328,1.43,1.252,1.516s-.663-.29-1.678-1a47.234,47.234,0,0,0-4.377-2.794,20.326,20.326,0,0,0-7.078-2.442,14.025,14.025,0,0,0-4.33.087,11.106,11.106,0,0,0-4.224,1.719,9.385,9.385,0,0,0-3.037,3.3,9.22,9.22,0,0,0-.893,4.084,13.387,13.387,0,0,0,.49,3.891,10.825,10.825,0,0,0,1.424,3.092,10.169,10.169,0,0,0,1.91,2.087,12.733,12.733,0,0,0,1.792,1.243c.52.313.966.482,1.246.659s.43.277.414.335" transform="translate(12.45 14.027)" fill="#e8505b"/>
                <path id="Trazado_838616" data-name="Trazado 838616" d="M128.429,192.726c-.016.057-.195.054-.524-.007a8.276,8.276,0,0,1-1.419-.381,10.292,10.292,0,0,1-4.4-3.218,11.371,11.371,0,0,1-1.805-3.383,14.106,14.106,0,0,1-.714-4.329,10.47,10.47,0,0,1,.985-4.856,10.8,10.8,0,0,1,3.564-3.943,12.423,12.423,0,0,1,4.9-1.955,14.946,14.946,0,0,1,4.853,0,19.71,19.71,0,0,1,7.47,2.963,26.951,26.951,0,0,1,4.182,3.323c.9.88,1.328,1.43,1.252,1.516s-.663-.29-1.678-1a47.209,47.209,0,0,0-4.377-2.795,20.349,20.349,0,0,0-7.078-2.44,14.026,14.026,0,0,0-4.33.087,11.107,11.107,0,0,0-4.224,1.719,9.376,9.376,0,0,0-3.037,3.3,9.217,9.217,0,0,0-.893,4.084,13.386,13.386,0,0,0,.49,3.891,10.825,10.825,0,0,0,1.424,3.092,10.168,10.168,0,0,0,1.91,2.087,12.73,12.73,0,0,0,1.792,1.243c.521.313.966.482,1.246.659s.43.277.414.335" transform="translate(12.049 17.178)" fill="#e8505b"/>
                <path id="Trazado_838617" data-name="Trazado 838617" d="M124.453,223.992c-.017.057-.195.054-.524-.007a8.274,8.274,0,0,1-1.419-.381,10.3,10.3,0,0,1-4.4-3.216A11.392,11.392,0,0,1,116.306,217a14.106,14.106,0,0,1-.714-4.329,10.463,10.463,0,0,1,.985-4.854,10.8,10.8,0,0,1,3.564-3.944,12.423,12.423,0,0,1,4.9-1.955,14.946,14.946,0,0,1,4.853,0,19.711,19.711,0,0,1,7.47,2.963,26.953,26.953,0,0,1,4.182,3.323c.9.88,1.328,1.43,1.252,1.516s-.663-.29-1.678-1a47.232,47.232,0,0,0-4.377-2.794,20.326,20.326,0,0,0-7.078-2.442,14.026,14.026,0,0,0-4.33.087,11.107,11.107,0,0,0-4.224,1.719,9.385,9.385,0,0,0-3.037,3.3,9.216,9.216,0,0,0-.893,4.084,13.386,13.386,0,0,0,.49,3.891,10.825,10.825,0,0,0,1.424,3.092,10.169,10.169,0,0,0,1.91,2.087A12.638,12.638,0,0,0,122.793,223c.521.313.966.482,1.246.659s.43.277.414.335" transform="translate(11.649 20.329)" fill="#e8505b"/>
                <path id="Trazado_838618" data-name="Trazado 838618" d="M120.477,255.257c-.017.057-.195.054-.524-.007a8.275,8.275,0,0,1-1.419-.381,10.292,10.292,0,0,1-4.4-3.218,11.371,11.371,0,0,1-1.805-3.383,14.106,14.106,0,0,1-.714-4.329,10.47,10.47,0,0,1,.985-4.856,10.8,10.8,0,0,1,3.564-3.943,12.423,12.423,0,0,1,4.9-1.955,14.946,14.946,0,0,1,4.853,0,19.711,19.711,0,0,1,7.47,2.963,26.952,26.952,0,0,1,4.182,3.323c.9.88,1.328,1.43,1.252,1.516s-.664-.29-1.678-1a47.2,47.2,0,0,0-4.377-2.795,20.356,20.356,0,0,0-7.078-2.44,14.026,14.026,0,0,0-4.33.087,11.106,11.106,0,0,0-4.224,1.719,9.375,9.375,0,0,0-3.037,3.3,9.216,9.216,0,0,0-.893,4.084,13.386,13.386,0,0,0,.49,3.891,10.825,10.825,0,0,0,1.424,3.092,10.169,10.169,0,0,0,1.91,2.087,12.727,12.727,0,0,0,1.792,1.243c.52.313.966.482,1.246.659s.43.277.414.335" transform="translate(11.248 23.48)" fill="#e8505b"/>
                <path id="Trazado_838619" data-name="Trazado 838619" d="M116.5,286.523c-.017.057-.195.054-.524-.007a8.275,8.275,0,0,1-1.419-.381,10.292,10.292,0,0,1-4.4-3.218,11.371,11.371,0,0,1-1.805-3.383,14.106,14.106,0,0,1-.714-4.329,10.47,10.47,0,0,1,.985-4.856,10.8,10.8,0,0,1,3.564-3.943,12.423,12.423,0,0,1,4.9-1.955,14.946,14.946,0,0,1,4.853,0,19.71,19.71,0,0,1,7.47,2.963,26.947,26.947,0,0,1,4.182,3.323c.9.88,1.328,1.43,1.252,1.516s-.663-.29-1.678-1a47.2,47.2,0,0,0-4.377-2.795,20.348,20.348,0,0,0-7.078-2.44,14.026,14.026,0,0,0-4.33.087,11.106,11.106,0,0,0-4.224,1.719,9.375,9.375,0,0,0-3.037,3.3,9.216,9.216,0,0,0-.893,4.084,13.387,13.387,0,0,0,.49,3.891,10.825,10.825,0,0,0,1.424,3.092,10.169,10.169,0,0,0,1.91,2.087,12.727,12.727,0,0,0,1.792,1.243c.521.313.966.482,1.246.659s.43.277.414.335" transform="translate(10.847 26.63)" fill="#e8505b"/>
                <g id="Grupo_1072078" data-name="Grupo 1072078" transform="translate(118.487 15.554)" opacity="0.2">
                  <g id="Grupo_1072077" data-name="Grupo 1072077">
                    <g id="Grupo_1072076" data-name="Grupo 1072076" clip-path="url(#clip-path-11)">
                      <path id="Trazado_838620" data-name="Trazado 838620" d="M148.309,36.4c-.016.057-.195.055-.524-.006a8.382,8.382,0,0,1-1.419-.381,10.209,10.209,0,0,1-2.085-1.08,10.105,10.105,0,0,1-2.314-2.137,11.412,11.412,0,0,1-1.805-3.385,14.093,14.093,0,0,1-.714-4.328,10.467,10.467,0,0,1,.985-4.856A10.794,10.794,0,0,1,144,16.282a12.406,12.406,0,0,1,4.9-1.955,14.885,14.885,0,0,1,4.853,0,19.711,19.711,0,0,1,7.47,2.963,26.959,26.959,0,0,1,4.182,3.322c.9.881,1.328,1.431,1.252,1.517s-.664-.29-1.678-1a47.434,47.434,0,0,0-4.377-2.795,20.379,20.379,0,0,0-7.078-2.439,14.025,14.025,0,0,0-4.33.086,11.109,11.109,0,0,0-4.224,1.721,9.372,9.372,0,0,0-3.037,3.3,9.22,9.22,0,0,0-.893,4.085,13.378,13.378,0,0,0,.49,3.89,10.832,10.832,0,0,0,1.424,3.093,10.2,10.2,0,0,0,1.91,2.087,12.731,12.731,0,0,0,1.792,1.243c.52.313.966.481,1.246.659.285.163.43.277.414.334" transform="translate(-104.435 -14.13)" fill="#b40e0e"/>
                      <path id="Trazado_838621" data-name="Trazado 838621" d="M144.333,67.663c-.017.057-.195.054-.524-.007a8.277,8.277,0,0,1-1.419-.381,10.3,10.3,0,0,1-4.4-3.216,11.391,11.391,0,0,1-1.805-3.384,14.106,14.106,0,0,1-.714-4.329,10.463,10.463,0,0,1,.985-4.854,10.8,10.8,0,0,1,3.564-3.944,12.422,12.422,0,0,1,4.9-1.955,14.946,14.946,0,0,1,4.853,0,19.711,19.711,0,0,1,7.47,2.963,26.953,26.953,0,0,1,4.182,3.323c.9.88,1.328,1.43,1.252,1.516s-.664-.29-1.678-1a47.2,47.2,0,0,0-4.377-2.795,20.348,20.348,0,0,0-7.078-2.44,14.026,14.026,0,0,0-4.33.087,11.107,11.107,0,0,0-4.224,1.719,9.375,9.375,0,0,0-3.037,3.3,9.217,9.217,0,0,0-.893,4.084,13.386,13.386,0,0,0,.49,3.891,10.825,10.825,0,0,0,1.424,3.092,10.168,10.168,0,0,0,1.91,2.087,12.729,12.729,0,0,0,1.792,1.243c.52.313.966.482,1.246.659s.43.277.414.335" transform="translate(-104.835 -10.979)" fill="#b40e0e"/>
                      <path id="Trazado_838622" data-name="Trazado 838622" d="M140.357,98.929c-.016.057-.195.054-.524-.007a8.278,8.278,0,0,1-1.419-.381,10.292,10.292,0,0,1-4.4-3.218,11.371,11.371,0,0,1-1.805-3.383,14.106,14.106,0,0,1-.714-4.329,10.47,10.47,0,0,1,.985-4.856,10.8,10.8,0,0,1,3.564-3.943,12.423,12.423,0,0,1,4.9-1.955,14.946,14.946,0,0,1,4.853,0,19.71,19.71,0,0,1,7.47,2.963,26.953,26.953,0,0,1,4.182,3.323c.9.88,1.328,1.43,1.252,1.516s-.663-.29-1.678-1a47.2,47.2,0,0,0-4.377-2.795,20.348,20.348,0,0,0-7.078-2.44,14.026,14.026,0,0,0-4.33.087,11.107,11.107,0,0,0-4.224,1.719,9.375,9.375,0,0,0-3.037,3.3,9.216,9.216,0,0,0-.893,4.084,13.386,13.386,0,0,0,.49,3.891A10.824,10.824,0,0,0,135,94.6a10.168,10.168,0,0,0,1.91,2.087,12.732,12.732,0,0,0,1.792,1.243c.52.313.966.482,1.246.659s.43.277.414.335" transform="translate(-105.236 -7.828)" fill="#b40e0e"/>
                      <path id="Trazado_838623" data-name="Trazado 838623" d="M136.381,130.195c-.017.057-.195.054-.524-.007a8.278,8.278,0,0,1-1.419-.381,10.3,10.3,0,0,1-4.4-3.216,11.391,11.391,0,0,1-1.805-3.384,14.106,14.106,0,0,1-.714-4.329,10.47,10.47,0,0,1,.985-4.856,10.8,10.8,0,0,1,3.564-3.943,12.422,12.422,0,0,1,4.9-1.955,14.945,14.945,0,0,1,4.853,0,19.711,19.711,0,0,1,7.47,2.963,26.952,26.952,0,0,1,4.182,3.323c.9.88,1.328,1.43,1.252,1.516s-.663-.29-1.678-1a47.193,47.193,0,0,0-4.377-2.795,20.349,20.349,0,0,0-7.078-2.44,14.026,14.026,0,0,0-4.33.087,11.106,11.106,0,0,0-4.224,1.719A9.385,9.385,0,0,0,130,114.8a9.216,9.216,0,0,0-.893,4.084,13.386,13.386,0,0,0,.49,3.891,10.825,10.825,0,0,0,1.424,3.092,10.169,10.169,0,0,0,1.91,2.087,12.639,12.639,0,0,0,1.792,1.243c.521.313.966.482,1.246.659s.43.277.414.335" transform="translate(-105.637 -4.678)" fill="#b40e0e"/>
                      <path id="Trazado_838624" data-name="Trazado 838624" d="M132.405,161.46c-.017.057-.195.054-.524-.007a8.275,8.275,0,0,1-1.419-.381,10.3,10.3,0,0,1-4.4-3.216,11.378,11.378,0,0,1-1.805-3.384,14.105,14.105,0,0,1-.714-4.329,10.47,10.47,0,0,1,.985-4.855,10.8,10.8,0,0,1,3.564-3.943,12.423,12.423,0,0,1,4.9-1.955,14.946,14.946,0,0,1,4.853,0,19.711,19.711,0,0,1,7.47,2.963,26.953,26.953,0,0,1,4.182,3.323c.9.88,1.328,1.43,1.252,1.516s-.663-.29-1.678-1a47.234,47.234,0,0,0-4.377-2.794,20.326,20.326,0,0,0-7.078-2.442,14.025,14.025,0,0,0-4.33.087,11.106,11.106,0,0,0-4.224,1.719,9.385,9.385,0,0,0-3.037,3.3,9.22,9.22,0,0,0-.893,4.084,13.387,13.387,0,0,0,.49,3.891,10.825,10.825,0,0,0,1.424,3.092,10.169,10.169,0,0,0,1.91,2.087,12.733,12.733,0,0,0,1.792,1.243c.52.313.966.482,1.246.659s.43.277.414.335" transform="translate(-106.037 -1.527)" fill="#b40e0e"/>
                      <path id="Trazado_838625" data-name="Trazado 838625" d="M128.429,192.726c-.016.057-.195.054-.524-.007a8.276,8.276,0,0,1-1.419-.381,10.292,10.292,0,0,1-4.4-3.218,11.371,11.371,0,0,1-1.805-3.383,14.106,14.106,0,0,1-.714-4.329,10.47,10.47,0,0,1,.985-4.856,10.8,10.8,0,0,1,3.564-3.943,12.423,12.423,0,0,1,4.9-1.955,14.946,14.946,0,0,1,4.853,0,19.71,19.71,0,0,1,7.47,2.963,26.951,26.951,0,0,1,4.182,3.323c.9.88,1.328,1.43,1.252,1.516s-.663-.29-1.678-1a47.209,47.209,0,0,0-4.377-2.795,20.349,20.349,0,0,0-7.078-2.44,14.026,14.026,0,0,0-4.33.087,11.107,11.107,0,0,0-4.224,1.719,9.376,9.376,0,0,0-3.037,3.3,9.217,9.217,0,0,0-.893,4.084,13.386,13.386,0,0,0,.49,3.891,10.825,10.825,0,0,0,1.424,3.092,10.168,10.168,0,0,0,1.91,2.087,12.73,12.73,0,0,0,1.792,1.243c.521.313.966.482,1.246.659s.43.277.414.335" transform="translate(-106.438 1.624)" fill="#b40e0e"/>
                      <path id="Trazado_838626" data-name="Trazado 838626" d="M124.453,223.992c-.017.057-.195.054-.524-.007a8.274,8.274,0,0,1-1.419-.381,10.3,10.3,0,0,1-4.4-3.216A11.392,11.392,0,0,1,116.306,217a14.106,14.106,0,0,1-.714-4.329,10.463,10.463,0,0,1,.985-4.854,10.8,10.8,0,0,1,3.564-3.944,12.423,12.423,0,0,1,4.9-1.955,14.946,14.946,0,0,1,4.853,0,19.711,19.711,0,0,1,7.47,2.963,26.953,26.953,0,0,1,4.182,3.323c.9.88,1.328,1.43,1.252,1.516s-.663-.29-1.678-1a47.232,47.232,0,0,0-4.377-2.794,20.326,20.326,0,0,0-7.078-2.442,14.026,14.026,0,0,0-4.33.087,11.107,11.107,0,0,0-4.224,1.719,9.385,9.385,0,0,0-3.037,3.3,9.216,9.216,0,0,0-.893,4.084,13.386,13.386,0,0,0,.49,3.891,10.825,10.825,0,0,0,1.424,3.092,10.169,10.169,0,0,0,1.91,2.087A12.638,12.638,0,0,0,122.793,223c.521.313.966.482,1.246.659s.43.277.414.335" transform="translate(-106.839 4.775)" fill="#b40e0e"/>
                      <path id="Trazado_838627" data-name="Trazado 838627" d="M120.477,255.257c-.017.057-.195.054-.524-.007a8.275,8.275,0,0,1-1.419-.381,10.292,10.292,0,0,1-4.4-3.218,11.371,11.371,0,0,1-1.805-3.383,14.106,14.106,0,0,1-.714-4.329,10.47,10.47,0,0,1,.985-4.856,10.8,10.8,0,0,1,3.564-3.943,12.423,12.423,0,0,1,4.9-1.955,14.946,14.946,0,0,1,4.853,0,19.711,19.711,0,0,1,7.47,2.963,26.952,26.952,0,0,1,4.182,3.323c.9.88,1.328,1.43,1.252,1.516s-.664-.29-1.678-1a47.2,47.2,0,0,0-4.377-2.795,20.356,20.356,0,0,0-7.078-2.44,14.026,14.026,0,0,0-4.33.087,11.106,11.106,0,0,0-4.224,1.719,9.375,9.375,0,0,0-3.037,3.3,9.216,9.216,0,0,0-.893,4.084,13.386,13.386,0,0,0,.49,3.891,10.825,10.825,0,0,0,1.424,3.092,10.169,10.169,0,0,0,1.91,2.087,12.727,12.727,0,0,0,1.792,1.243c.52.313.966.482,1.246.659s.43.277.414.335" transform="translate(-107.239 7.926)" fill="#b40e0e"/>
                      <path id="Trazado_838628" data-name="Trazado 838628" d="M116.5,286.523c-.017.057-.195.054-.524-.007a8.275,8.275,0,0,1-1.419-.381,10.292,10.292,0,0,1-4.4-3.218,11.371,11.371,0,0,1-1.805-3.383,14.106,14.106,0,0,1-.714-4.329,10.47,10.47,0,0,1,.985-4.856,10.8,10.8,0,0,1,3.564-3.943,12.423,12.423,0,0,1,4.9-1.955,14.946,14.946,0,0,1,4.853,0,19.71,19.71,0,0,1,7.47,2.963,26.947,26.947,0,0,1,4.182,3.323c.9.88,1.328,1.43,1.252,1.516s-.663-.29-1.678-1a47.2,47.2,0,0,0-4.377-2.795,20.348,20.348,0,0,0-7.078-2.44,14.026,14.026,0,0,0-4.33.087,11.106,11.106,0,0,0-4.224,1.719,9.375,9.375,0,0,0-3.037,3.3,9.216,9.216,0,0,0-.893,4.084,13.387,13.387,0,0,0,.49,3.891,10.825,10.825,0,0,0,1.424,3.092,10.169,10.169,0,0,0,1.91,2.087,12.727,12.727,0,0,0,1.792,1.243c.521.313.966.482,1.246.659s.43.277.414.335" transform="translate(-107.64 11.076)" fill="#b40e0e"/>
                    </g>
                  </g>
                </g>
                <rect id="Rectángulo_377688" data-name="Rectángulo 377688" width="15.994" height="26.781" transform="translate(394.145 89.503) rotate(-82.753)" fill="#b40e0e"/>
                <path id="Trazado_838629" data-name="Trazado 838629" d="M356.231,79.716a2.5,2.5,0,0,1-.44-.029l-1.286-.142-4.937-.6-18.143-2.314L271.6,68.783l-17.052-2.267c-5.508-.72-10.821-1.476-15.88-2.088a55.631,55.631,0,0,0-14.393-.152c-4.464.625-8.681,1.581-12.594,1.113a14.907,14.907,0,0,1-5.3-1.641c-1.555-.815-2.909-1.751-4.208-2.558a21.7,21.7,0,0,0-3.749-1.976,10.42,10.42,0,0,0-3.472-.648,6.683,6.683,0,0,0-4.568,1.477,7.467,7.467,0,0,0-1.108,1.31,2.46,2.46,0,0,1,.208-.391,2.4,2.4,0,0,1,.312-.448,3.405,3.405,0,0,1,.512-.558,6.721,6.721,0,0,1,4.645-1.614,10.575,10.575,0,0,1,3.565.615,21.7,21.7,0,0,1,3.824,1.959c1.313.8,2.672,1.721,4.207,2.508a14.586,14.586,0,0,0,5.175,1.562c3.823.434,7.991-.528,12.484-1.181a55.8,55.8,0,0,1,14.517.1c5.08.6,10.381,1.344,15.894,2.056l17.053,2.255,59.806,8.015L349.6,78.724l4.923.707,1.279.2a2.58,2.58,0,0,1,.433.087" transform="translate(19.074 5.879)" fill="#263238"/>
                <path id="Trazado_838630" data-name="Trazado 838630" d="M351.205,94.15a2.156,2.156,0,0,1-.413-.023l-1.2-.124-4.617-.533L328.007,91.4c-14.349-1.8-34.116-4.286-55.951-7.031l-55.939-7.2-16.944-2.247-4.6-.64-1.2-.181a2.195,2.195,0,0,1-.405-.081,2.155,2.155,0,0,1,.413.023l1.2.124,4.617.533,16.966,2.066,55.96,7.032,55.93,7.2L345,93.248l4.6.64,1.2.181a2.195,2.195,0,0,1,.405.081" transform="translate(19.446 7.46)" fill="#263238"/>
                <path id="Trazado_838631" data-name="Trazado 838631" d="M333.409,178.016a1.947,1.947,0,0,1-.392-.02l-1.144-.117-4.389-.5-16.129-1.959-53.183-6.678L205,161.891l-16.1-2.14-4.376-.611-1.135-.173a1.964,1.964,0,0,1-.385-.078,1.944,1.944,0,0,1,.392.02l1.144.117,4.388.5,16.127,1.959,53.193,6.68,53.162,6.846,16.105,2.14,4.376.61,1.136.174a1.958,1.958,0,0,1,.384.078" transform="translate(18.442 16.012)" fill="#263238"/>
                <path id="Trazado_838632" data-name="Trazado 838632" d="M329.8,206.422a1.949,1.949,0,0,1-.392-.02l-1.144-.117-4.389-.5-16.129-1.959-53.183-6.678L201.39,190.3l-16.1-2.14-4.376-.611-1.136-.173a1.958,1.958,0,0,1-.384-.078,1.949,1.949,0,0,1,.392.02l1.144.117,4.388.5,16.127,1.959,53.193,6.68,53.162,6.846,16.105,2.14,4.376.61,1.136.174a1.958,1.958,0,0,1,.384.078" transform="translate(18.078 18.874)" fill="#263238"/>
                <path id="Trazado_838633" data-name="Trazado 838633" d="M328.506,191.534a1.87,1.87,0,0,1-.384-.02L327,191.4l-4.3-.492-15.793-1.916-52.075-6.538-52.062-6.706-15.77-2.1c-1.832-.256-3.268-.458-4.283-.6l-1.112-.171a1.962,1.962,0,0,1-.376-.077,1.9,1.9,0,0,1,.383.019l1.12.113,4.3.493,15.792,1.916,52.084,6.539,52.055,6.7,15.77,2.1,4.284.6,1.112.171a1.859,1.859,0,0,1,.376.077" transform="translate(18.264 17.414)" fill="#263238"/>
                <path id="Trazado_838634" data-name="Trazado 838634" d="M245.323,208.549a3.143,3.143,0,0,1-.693-.03l-1.975-.2-7.249-.83-23.889-2.953-23.872-3.121-7.225-1.01-1.96-.3a3.181,3.181,0,0,1-.679-.144,3.145,3.145,0,0,1,.693.03l1.975.2,7.249.83,23.892,2.953,23.868,3.121,7.227,1.01,1.96.3a3.188,3.188,0,0,1,.679.144" transform="translate(17.916 20.15)" fill="#263238"/>
                <path id="Trazado_838635" data-name="Trazado 838635" d="M213.66,89.371c-.02.157-5.684-.434-12.649-1.32s-12.6-1.732-12.579-1.889,5.682.435,12.65,1.321,12.6,1.73,12.577,1.888" transform="translate(18.989 8.68)" fill="#263238"/>
                <path id="Trazado_838636" data-name="Trazado 838636" d="M334.91,162.3a1.889,1.889,0,0,1-.379-.018l-1.1-.109c-.969-.111-2.4-.26-4.242-.415s-4.1-.336-6.726-.488c-2.623-.167-5.615-.3-8.922-.45-6.613-.3-14.5-.5-23.244-1.009-4.371-.265-8.962-.6-13.7-1.211-4.73-.642-9.594-1.421-14.594-2.16l-51.16-7.828-15.492-2.445-4.207-.693-1.093-.194a1.865,1.865,0,0,1-.369-.086,1.872,1.872,0,0,1,.378.028l1.1.139,4.224.587,15.52,2.264,51.184,7.661c5,.738,9.872,1.523,14.582,2.17,4.712.618,9.294.962,13.658,1.241,8.732.538,16.615.785,23.23,1.132,3.308.171,6.3.338,8.924.535s4.884.39,6.727.587,3.27.373,4.235.522l1.1.165a1.864,1.864,0,0,1,.371.076" transform="translate(19.115 14.632)" fill="#263238"/>
              </g>
            </g>
            <g id="Grupo_1072094" data-name="Grupo 1072094">
              <g id="Grupo_1072093" data-name="Grupo 1072093" clip-path="url(#clip-path-5)">
                <path id="Trazado_838637" data-name="Trazado 838637" d="M67.211,260.994S201.914,127.8,217.234,106.7l-9.22-8.481L56.111,249.285Z" transform="translate(5.655 9.898)" fill="#e0e0e0"/>
                <path id="Trazado_838638" data-name="Trazado 838638" d="M29.211,279.841c6.062.116,22.437-2.224,45.506-26.018l20.354-18.366L79.5,220.472s31.043-28.756,29.557-30.329-17.977,13.737-31.015,25.02c-11.86,10.264-51.433,46.459-52.35,60.831a3.612,3.612,0,0,0,3.522,3.847" transform="translate(2.588 19.15)" fill="#0a5e6b"/>
                <g id="Grupo_1072083" data-name="Grupo 1072083" transform="translate(28.593 209.181)" opacity="0.2">
                  <g id="Grupo_1072082" data-name="Grupo 1072082">
                    <g id="Grupo_1072081" data-name="Grupo 1072081" clip-path="url(#clip-path-13)">
                      <path id="Trazado_838639" data-name="Trazado 838639" d="M109.025,190.143c-1.485-1.572-17.978,13.737-31.015,25.02-1.028.888-2.275,1.984-3.675,3.232L89.8,233.212,69.483,251.622c-20.889,21.638-36.3,25.593-43.508,26.062a3.587,3.587,0,0,0,3.207,2.158c6.061.116,22.438-2.224,45.506-26.018l20.354-18.366L79.468,220.472s31.042-28.757,29.557-30.329" transform="translate(-25.975 -190.031)"/>
                    </g>
                  </g>
                </g>
                <path id="Trazado_838640" data-name="Trazado 838640" d="M91.076,224.437,197.242,117.73l-4.5-4.136L86.76,219.883Z" transform="translate(8.743 11.447)" fill="#263238"/>
                <path id="Trazado_838641" data-name="Trazado 838641" d="M204.4,107.584s10.07-15.867,7.257-16.7-16.38,8.077-16.38,8.077l2.592,2.68-15.358,14.834,5.082,3.547,14.024-14.812Z" transform="translate(18.393 9.153)" fill="#455a64"/>
                <path id="Trazado_838642" data-name="Trazado 838642" d="M109.271,177.029h0a9.9,9.9,0,0,0,10.652-9.494c.207-5.391.387-10.839.387-10.839s8.169-.765,8.761-8.849.321-26.746.321-26.746a28.169,28.169,0,0,0-28.467,1.831l-1.255.85.458,43.481a9.9,9.9,0,0,0,9.142,9.767" transform="translate(10.044 11.9)" fill="#ffbe9d"/>
                <path id="Trazado_838643" data-name="Trazado 838643" d="M109.409,111.312c-4.918-.148-9.381,3.066-11.664,7.021s-2.778,8.543-2.991,13a247.162,247.162,0,0,0,.621,26.259,2.849,2.849,0,0,0,.563,1.85,3.519,3.519,0,0,0,2.131.8,166.229,166.229,0,0,0,45.031.068c.984-1.78-.4-3.895-1.99-5.263s-3.565-2.611-4.14-4.533c-.906-3.023,2.1-6.263.927-9.21-.881-2.214-3.792-3.3-4.816-5.466-1.719-3.633,2.717-8.024.749-11.55-1.026-1.839-3.426-2.653-4.942-4.187-1.341-1.355-1.916-3.2-3.079-4.682-1.821-2.326-4.951-3.58-8.071-3.94a29.623,29.623,0,0,0-8.327-.172" transform="translate(9.534 11.195)" fill="#12263f"/>
                <path id="Trazado_838644" data-name="Trazado 838644" d="M99.008,119.687c-2.088,1.018-2.991,3.511-3.294,5.814s-.221,4.718-1.179,6.835c-1.023,2.26-3.154,3.984-3.715,6.4-.731,3.141,1.34,6.844-.531,9.471-1.2,1.693-3.569,2.117-5.053,3.572-2.051,2.012-1.868,5.309-1.541,8.163l26.99-.241" transform="translate(8.414 12.061)" fill="#12263f"/>
                <path id="Trazado_838645" data-name="Trazado 838645" d="M105.448,116.407a8.217,8.217,0,0,0-12.4-5.5c-4.313,2.663-5.836,9.021-10.686,10.495-1.263.384-2.818.5-3.482,1.637-.693,1.189.168,2.794,1.408,3.389a7.559,7.559,0,0,0,4.057.327,2.578,2.578,0,0,0-2.816,2.989,3.292,3.292,0,0,0,3.712,2.368,4.582,4.582,0,0,0,3.416-3.127q-.877,2.544-1.755,5.09c3.356.589,6.217-2.434,7.919-5.386s3.244-6.4,6.387-7.72c1.4-.586,3.019-.691,4.22-1.614s1.438-3.234-.009-3.682" transform="translate(7.924 11.055)" fill="#12263f"/>
                <path id="Trazado_838646" data-name="Trazado 838646" d="M104.539,115.881c.029-.053.63.244,1.182,1.128a4.369,4.369,0,0,1-2.556,6.553,2.286,2.286,0,0,1-1.635.03c0-.1.624-.066,1.5-.414a4.243,4.243,0,0,0,2.331-5.974c-.413-.852-.893-1.252-.828-1.323" transform="translate(10.232 11.677)" fill="#263238"/>
                <path id="Trazado_838647" data-name="Trazado 838647" d="M130.854,349.426l13.836,63.815,18.253-.426-8.086-69.033Z" transform="translate(13.187 34.645)" fill="#ffbe9d"/>
                <path id="Trazado_838648" data-name="Trazado 838648" d="M72.438,187.374s-.31.445-.813,1.244c-2.934,4.657-11.186,21.359-4.232,32.533l17.455-15.345,2.95-6.894" transform="translate(6.518 18.883)" fill="#ffbe9d"/>
                <path id="Trazado_838649" data-name="Trazado 838649" d="M81.407,302.093,75.529,411.049l17.965,4.34,13.469-111Z" transform="translate(7.611 30.443)" fill="#ffbe9d"/>
                <path id="Trazado_838650" data-name="Trazado 838650" d="M161.5,179.772l-25.324,6.11-1.463,19.534,3.527,11.14c-.043.4,5.694,19.138,5.694,19.138l1.777,6.2-57.879.6c-.194-6.764,4.306-13.434,4.306-13.434,3.294-5.585,2.442-14.016.909-20.417-.485-2.025-1.128-5.364-1.386-7.431l-.044-.356-3.312,5.826-20.1-14.507c6.525-12.586,16.1-25.314,17.252-26.261a23.659,23.659,0,0,1,14.912-5.468l24.988.212s19.671-2.464,31.14-4.4Z" transform="translate(6.874 15.747)" fill="#1fd27a"/>
                <path id="Trazado_838651" data-name="Trazado 838651" d="M155.8,158.807a16.511,16.511,0,0,0-2.614,1.861c-.779.681-1.649,1.606-2.654,2.69a25.76,25.76,0,0,1-3.7,3.431,23.58,23.58,0,0,1-12.215,4.546,22.908,22.908,0,0,1-7.741-.73c-2.615-.709-5.152-1.874-7.855-2.639a16.836,16.836,0,0,0-4.068-.677,15.771,15.771,0,0,0-3.968.465,37.56,37.56,0,0,0-7.1,2.836,56.19,56.19,0,0,1-6.421,2.817,18.7,18.7,0,0,1-14.618-.885,16.612,16.612,0,0,1-2.068-1.228,4.7,4.7,0,0,1-.658-.52c.036-.057.944.673,2.823,1.547a19.11,19.11,0,0,0,8.481,1.762,18.72,18.72,0,0,0,5.885-1.125,57.4,57.4,0,0,0,6.345-2.842,37.463,37.463,0,0,1,7.2-2.906,16.193,16.193,0,0,1,4.119-.49,17.292,17.292,0,0,1,4.208.7c2.763.784,5.293,1.949,7.85,2.648a22.564,22.564,0,0,0,7.552.745,23.453,23.453,0,0,0,12.014-4.346,26.4,26.4,0,0,0,3.708-3.327,34.645,34.645,0,0,1,2.741-2.637,11.177,11.177,0,0,1,1.99-1.358,5.34,5.34,0,0,1,.567-.266c.13-.054.2-.077.2-.068" transform="translate(8.073 16.004)" fill="#263238"/>
                <path id="Trazado_838652" data-name="Trazado 838652" d="M134.272,189.716a2.326,2.326,0,0,1-.5.485,4.435,4.435,0,0,1-1.846.8,7.186,7.186,0,0,1-3.18-.163,12.841,12.841,0,0,1-3.787-1.843,32.7,32.7,0,0,0-4.28-2.612,12.378,12.378,0,0,0-5.548-1.012c-4.057.125-8.276,1.833-12.591,3.7A44.706,44.706,0,0,1,96,191.344a17.245,17.245,0,0,1-6.46.461,13.625,13.625,0,0,1-5.5-2.044,19.566,19.566,0,0,1-3.9-3.281,36.939,36.939,0,0,1-4.324-5.938c-.448-.741-.783-1.323-1.006-1.721a3.174,3.174,0,0,1-.314-.623,3.177,3.177,0,0,1,.413.563l1.1,1.661a40.9,40.9,0,0,0,4.43,5.779,19.528,19.528,0,0,0,3.86,3.156,13.249,13.249,0,0,0,5.317,1.924,16.846,16.846,0,0,0,6.258-.483,45.077,45.077,0,0,0,6.454-2.259c4.3-1.858,8.606-3.6,12.8-3.7a12.757,12.757,0,0,1,5.76,1.106,31.883,31.883,0,0,1,4.307,2.708,12.8,12.8,0,0,0,3.647,1.87,7.14,7.14,0,0,0,3.056.252,5.257,5.257,0,0,0,2.39-1.063" transform="translate(7.506 17.958)" fill="#263238"/>
                <path id="Trazado_838653" data-name="Trazado 838653" d="M133.346,205.991c.014.013-.084.134-.286.356a6.424,6.424,0,0,1-.986.863,9.481,9.481,0,0,1-4.525,1.6,16.456,16.456,0,0,1-7.056-.955c-2.549-.87-5.153-2.252-7.977-3.4a19.128,19.128,0,0,0-8.32-1.614,18.715,18.715,0,0,0-6.75,1.629,23.081,23.081,0,0,0-5.363,3.58c-.014-.013.083-.135.282-.358a9.985,9.985,0,0,1,.921-.922,16.967,16.967,0,0,1,3.988-2.667,18.5,18.5,0,0,1,6.894-1.789,19.228,19.228,0,0,1,8.561,1.609c2.868,1.168,5.449,2.556,7.94,3.436a16.529,16.529,0,0,0,6.844,1.049,9.78,9.78,0,0,0,4.437-1.377c.935-.6,1.353-1.078,1.4-1.033" transform="translate(9.279 20.384)" fill="#263238"/>
                <path id="Trazado_838654" data-name="Trazado 838654" d="M139.64,222.246c-.036.048-.588-.406-1.719-.984a14.051,14.051,0,0,0-5.154-1.37,23.217,23.217,0,0,0-7.884.861c-2.912.768-6,2.016-9.353,3.071a29.778,29.778,0,0,1-9.781,1.54,27.953,27.953,0,0,1-7.984-1.307,26.039,26.039,0,0,1-5-2.165c-.566-.309-.981-.589-1.261-.778a1.828,1.828,0,0,1-.412-.313c.029-.046.634.326,1.778.894a29.862,29.862,0,0,0,5.014,1.974,28.682,28.682,0,0,0,7.873,1.167,30.038,30.038,0,0,0,9.6-1.56c3.319-1.044,6.43-2.282,9.39-3.034a22.828,22.828,0,0,1,8.055-.753,13.381,13.381,0,0,1,5.221,1.576,8.762,8.762,0,0,1,1.232.832c.264.215.4.334.383.349" transform="translate(9.18 22.109)" fill="#263238"/>
                <path id="Trazado_838655" data-name="Trazado 838655" d="M87.134,232.618,76.039,359.854l27.413.163L117,258.045l17.684,102.9,27.429-5.061L145.3,233.689Z" transform="translate(7.663 23.442)" fill="#12263f"/>
                <path id="Trazado_838656" data-name="Trazado 838656" d="M134.936,252.7c.019.157-9.38,1.4-20.99,2.777s-21.041,2.364-21.06,2.208,9.379-1.4,20.992-2.777,21.039-2.366,21.058-2.208" transform="translate(9.361 25.464)" fill="#455a64"/>
                <path id="Trazado_838657" data-name="Trazado 838657" d="M164.168,408.381l-.077-2.041-20.668.6.179,6.728,1.278.042c5.687.141,28.925.342,32.688-.829,4.2-1.308-13.4-4.5-13.4-4.5" transform="translate(14.453 40.949)" fill="#0a5e6b"/>
                <g id="Grupo_1072086" data-name="Grupo 1072086" transform="translate(157.906 448.959)" opacity="0.6">
                  <g id="Grupo_1072085" data-name="Grupo 1072085">
                    <g id="Grupo_1072084" data-name="Grupo 1072084" clip-path="url(#clip-path-14)">
                      <path id="Trazado_838658" data-name="Trazado 838658" d="M151.055,413.163a6.61,6.61,0,0,0-2.752-4.008,7.319,7.319,0,0,0-4.852-1.261l.162,5.346Z" transform="translate(-143.45 -407.857)" fill="#fff"/>
                    </g>
                  </g>
                </g>
                <g id="Grupo_1072089" data-name="Grupo 1072089" transform="translate(158.056 451.172)" opacity="0.6">
                  <g id="Grupo_1072088" data-name="Grupo 1072088">
                    <g id="Grupo_1072087" data-name="Grupo 1072087" clip-path="url(#clip-path-15)">
                      <path id="Trazado_838659" data-name="Trazado 838659" d="M172.758,409.867s6.179,1.478,5.443,2.437-24.228,1.576-34.615,1.006l.02-.428,27.408-.5s.547-2.434,1.744-2.512" transform="translate(-143.586 -409.867)" fill="#fff"/>
                    </g>
                  </g>
                </g>
                <path id="Trazado_838660" data-name="Trazado 838660" d="M143.31,412.685a2.129,2.129,0,0,0,.354.026l1.018.03,3.744.052c3.161.023,7.53,0,12.354-.123s9.188-.325,12.343-.509l3.736-.243,1.014-.081a1.925,1.925,0,0,0,.352-.045,2.2,2.2,0,0,0-.356,0l-1.017.04-3.738.168c-3.157.143-7.519.317-12.342.441s-9.186.172-12.346.19l-3.743.022-1.018.014a2.125,2.125,0,0,0-.356.02" transform="translate(14.442 41.498)" fill="#263238"/>
                <path id="Trazado_838661" data-name="Trazado 838661" d="M168.51,412.7a7.472,7.472,0,0,1,.648-1.678,8.054,8.054,0,0,1,1.234-1.365,2.731,2.731,0,0,0-1.451,1.249,2.417,2.417,0,0,0-.432,1.793" transform="translate(16.977 41.282)" fill="#263238"/>
                <path id="Trazado_838662" data-name="Trazado 838662" d="M162.913,410.111c.059.033.34-.3.626-.751s.471-.838.412-.87-.339.3-.626.751-.471.837-.412.87" transform="translate(16.416 41.165)" fill="#263238"/>
                <path id="Trazado_838663" data-name="Trazado 838663" d="M161.377,409.36c.047.046.367-.164.711-.469s.588-.591.54-.637-.367.164-.712.469-.587.591-.539.637" transform="translate(16.262 41.141)" fill="#263238"/>
                <path id="Trazado_838664" data-name="Trazado 838664" d="M160.369,407.655a5.039,5.039,0,0,0,2.151-.034,5.039,5.039,0,0,0-2.151.034" transform="translate(16.161 41.068)" fill="#263238"/>
                <path id="Trazado_838665" data-name="Trazado 838665" d="M160.005,406.5a2.191,2.191,0,0,0,1.208.293,2.226,2.226,0,0,0,1.233-.186,103.985,103.985,0,0,1-2.44-.107" transform="translate(16.124 40.963)" fill="#263238"/>
                <path id="Trazado_838666" data-name="Trazado 838666" d="M163.5,408.594a4.109,4.109,0,0,0,1.322-.043,8.275,8.275,0,0,0,1.4-.325,4.024,4.024,0,0,0,.8-.33.674.674,0,0,0,.316-.391.47.47,0,0,0-.216-.485,2.531,2.531,0,0,0-2.978.738,2.114,2.114,0,0,0-.407.832c-.046.211-.039.331-.024.332a3.366,3.366,0,0,1,.571-1.064,2.4,2.4,0,0,1,1.108-.712,2.2,2.2,0,0,1,1.579.058c.215.14.14.371-.09.506a4.043,4.043,0,0,1-.734.315,9.556,9.556,0,0,1-1.352.365c-.787.151-1.291.166-1.29.2" transform="translate(16.477 40.996)" fill="#263238"/>
                <path id="Trazado_838667" data-name="Trazado 838667" d="M163.976,408.692a1.144,1.144,0,0,0,.127-.857,1.936,1.936,0,0,0-.389-.888,1.348,1.348,0,0,0-1.119-.6.488.488,0,0,0-.391.578,1.3,1.3,0,0,0,.242.544,3.79,3.79,0,0,0,.646.727,1.924,1.924,0,0,0,.772.478c.023-.03-.27-.214-.646-.592a4.333,4.333,0,0,1-.576-.723c-.189-.255-.328-.719,0-.784a1.206,1.206,0,0,1,.887.5,1.956,1.956,0,0,1,.4.789,4.129,4.129,0,0,1,.047.828" transform="translate(16.345 40.949)" fill="#263238"/>
                <path id="Trazado_838668" data-name="Trazado 838668" d="M143.547,407.853c.006.043.588-.068,1.521.01a6.958,6.958,0,0,1,3.355,1.183,6.232,6.232,0,0,1,2.155,2.668c.339.812.386,1.363.432,1.356a1.021,1.021,0,0,0-.011-.386,4.7,4.7,0,0,0-.255-1.026,5.942,5.942,0,0,0-2.171-2.8,6.687,6.687,0,0,0-3.494-1.162,5.789,5.789,0,0,0-1.13.057,1.236,1.236,0,0,0-.4.1" transform="translate(14.466 41.085)" fill="#263238"/>
                <path id="Trazado_838669" data-name="Trazado 838669" d="M152.659,410.931a18.184,18.184,0,0,0,6.015-.1c-.009-.067-1.351.044-3.007.072s-3-.034-3.007.033" transform="translate(15.384 41.399)" fill="#263238"/>
                <path id="Trazado_838670" data-name="Trazado 838670" d="M149,411.013c-.048.048.118.262.264.545s.228.535.3.529.1-.3-.076-.631-.445-.491-.488-.444" transform="translate(15.014 41.419)" fill="#263238"/>
                <path id="Trazado_838671" data-name="Trazado 838671" d="M147.567,409.452c-.047.046.091.242.31.437s.435.316.482.269-.09-.241-.309-.436-.436-.316-.483-.27" transform="translate(14.87 41.262)" fill="#263238"/>
                <path id="Trazado_838672" data-name="Trazado 838672" d="M145.569,408.784c.016.065.289.055.594.146s.528.235.58.189-.127-.3-.506-.412-.691.018-.668.076" transform="translate(14.67 41.183)" fill="#263238"/>
                <path id="Trazado_838673" data-name="Trazado 838673" d="M144.152,408.469c-.023.061.1.155.271.212s.331.055.354-.005-.1-.155-.271-.212-.331-.055-.354.005" transform="translate(14.527 41.159)" fill="#263238"/>
                <path id="Trazado_838674" data-name="Trazado 838674" d="M75.323,400.227l-3.059,13.458H92.938l.885-8.761Z" transform="translate(7.282 40.333)" fill="#0a5e6b"/>
                <path id="Trazado_838675" data-name="Trazado 838675" d="M93.309,410.739a14.534,14.534,0,0,1-3.012.173c-1.861.02-4.432-.03-7.266-.134l-7.254-.308a16.989,16.989,0,0,1-3-.241,14.628,14.628,0,0,1,3.013-.164c1.86-.015,4.431.036,7.266.141l7.252.3a17.115,17.115,0,0,1,3.005.232" transform="translate(7.334 41.324)" fill="#263238"/>
                <path id="Trazado_838676" data-name="Trazado 838676" d="M83.536,402.61a33.167,33.167,0,0,1-.585,8.677,33.168,33.168,0,0,1,.585-8.677" transform="translate(8.348 40.573)" fill="#263238"/>
                <g id="Grupo_1072092" data-name="Grupo 1072092" transform="translate(79.546 451.552)" opacity="0.6">
                  <g id="Grupo_1072091" data-name="Grupo 1072091">
                    <g id="Grupo_1072090" data-name="Grupo 1072090" clip-path="url(#clip-path-16)">
                      <path id="Trazado_838677" data-name="Trazado 838677" d="M72.264,412.679H92.938l.2-1.955-20.5-.511-.373,2.232" transform="translate(-72.264 -410.213)" fill="#fff"/>
                    </g>
                  </g>
                </g>
                <path id="Trazado_838678" data-name="Trazado 838678" d="M196.862,117.842l-7.539,2.72c-.108-3.019-2.161-6.165-2.161-4.652s-.713,9.3-.713,9.3l-15.727,27.359c-2.187,4.358-6.127,6.9-8.957,7.348l-12.9,2.762,3.625,17.05,17.973-4.438a15.156,15.156,0,0,0,10.355-8.879l14.953-35.846a57.2,57.2,0,0,0,2.519-7.1,7.012,7.012,0,0,0-1.429-5.632" transform="translate(15.002 11.641)" fill="#ffbe9d"/>
              </g>
            </g>
          </g>
        </g>
      </g>
      <g id="Grupo_1072019" data-name="Grupo 1072019" transform="translate(1279.069 1058.087)">
        <g id="Grupo_151704" data-name="Grupo 151704" transform="translate(0 8.517)">
          <path id="Trazado_212295" data-name="Trazado 212295" d="M-11425.02-11468v17.035" transform="translate(11433.536 11467.999)" fill="none" stroke="#0a5e6b" stroke-width="5"/>
          <path id="Trazado_212296" data-name="Trazado 212296" d="M0,0V17.033" transform="translate(17.033 8.517) rotate(90)" fill="none" stroke="#0a5e6b" stroke-width="5"/>
        </g>
        <g id="Grupo_151705" data-name="Grupo 151705" transform="translate(22.144 0)">
          <path id="Trazado_212295-2" data-name="Trazado 212295" d="M-11425.02-11468v17.035" transform="translate(11433.536 11467.999)" fill="none" stroke="#0a5e6b" stroke-width="5"/>
          <path id="Trazado_212296-2" data-name="Trazado 212296" d="M0,0V17.033" transform="translate(17.033 8.517) rotate(90)" fill="none" stroke="#0a5e6b" stroke-width="5"/>
        </g>
        <g id="Grupo_151706" data-name="Grupo 151706" transform="translate(25.835 25.55)">
          <path id="Trazado_212295-3" data-name="Trazado 212295" d="M-11425.02-11468v17.035" transform="translate(11433.536 11467.999)" fill="none" stroke="#0a5e6b" stroke-width="5"/>
          <path id="Trazado_212296-3" data-name="Trazado 212296" d="M0,0V17.033" transform="translate(17.033 8.517) rotate(90)" fill="none" stroke="#0a5e6b" stroke-width="5"/>
        </g>
      </g>
      <g id="Grupo_1072020" data-name="Grupo 1072020" transform="translate(1326.486 1021.39)">
        <g id="Grupo_151688" data-name="Grupo 151688" transform="translate(0 6.203)">
          <path id="Trazado_212295-4" data-name="Trazado 212295" d="M-11425.02-11468v12.406" transform="translate(11431.222 11467.998)" fill="none" stroke="#0a5e6b" stroke-width="4"/>
          <path id="Trazado_212296-4" data-name="Trazado 212296" d="M0,0V12.405" transform="translate(12.405 6.203) rotate(90)" fill="none" stroke="#0a5e6b" stroke-width="4"/>
        </g>
        <g id="Grupo_151689" data-name="Grupo 151689" transform="translate(16.127 0)">
          <path id="Trazado_212295-5" data-name="Trazado 212295" d="M-11425.02-11468v12.406" transform="translate(11431.222 11467.998)" fill="none" stroke="#0a5e6b" stroke-width="4"/>
          <path id="Trazado_212296-5" data-name="Trazado 212296" d="M0,0V12.405" transform="translate(12.405 6.203) rotate(90)" fill="none" stroke="#0a5e6b" stroke-width="4"/>
        </g>
        <g id="Grupo_151690" data-name="Grupo 151690" transform="translate(18.815 18.608)">
          <path id="Trazado_212295-6" data-name="Trazado 212295" d="M-11425.02-11468v12.406" transform="translate(11431.222 11467.998)" fill="none" stroke="#0a5e6b" stroke-width="4"/>
          <path id="Trazado_212296-6" data-name="Trazado 212296" d="M0,0V12.405" transform="translate(12.405 6.203) rotate(90)" fill="none" stroke="#0a5e6b" stroke-width="4"/>
        </g>
      </g>
    </g>
  </g>
</svg>
