<svg xmlns="http://www.w3.org/2000/svg" width="146" height="146" viewBox="0 0 146 146">
  <g id="Grupo_1072004" data-name="Grupo 1072004" transform="translate(-268.516 -957.516)">
    <circle id="Elipse_5614" data-name="Elipse 5614" cx="73" cy="73" r="73" transform="translate(268.516 957.516)" fill="#0a5e6b"/>
    <g id="Grupo_1072107" data-name="Grupo 1072107" transform="translate(8.723 8.7)">
      <g id="Grupo_1072113" data-name="Grupo 1072113" transform="translate(301.971 980.125)">
        <path id="Trazado_838691" data-name="Trazado 838691" d="M96.3,54.055a1.134,1.134,0,0,0-1.134,1.134V75.115H41.1V11.657h8.256a1.134,1.134,0,0,0,1.134-1.134V2.267h25.1a1.134,1.134,0,1,0,0-2.267H49.352a1.134,1.134,0,0,0-.8.332L39.184,9.7a1.131,1.131,0,0,0-.354.823V76.248a1.134,1.134,0,0,0,1.134,1.134H96.3a1.134,1.134,0,0,0,1.134-1.134V55.189A1.134,1.134,0,0,0,96.3,54.055ZM42.7,9.39l5.519-5.52V9.39Z" transform="translate(-38.83 0)" fill="#fff"/>
        <path id="Trazado_838692" data-name="Trazado 838692" d="M177.761,9.39h-1.223V1.134A1.134,1.134,0,0,0,175.405,0H159.627a1.134,1.134,0,1,0,0,2.267h14.645V9.39H133.154a1.134,1.134,0,0,0-1.134,1.134V34a1.134,1.134,0,0,0,1.134,1.134h6.614a1.134,1.134,0,1,0,0-2.267h-5.48V11.657h43.474a3.556,3.556,0,0,1,3.552,3.552V34.08a5.8,5.8,0,0,0-3.561-1.217H144.708a1.134,1.134,0,0,0,0,2.267h29.564V50.25a1.134,1.134,0,0,0,2.267,0V44.519h1.223a5.827,5.827,0,0,0,5.819-5.828V15.209a5.825,5.825,0,0,0-5.819-5.819Zm0,32.862h-1.223V35.13h1.214a3.565,3.565,0,0,1,3.561,3.561V38.7A3.556,3.556,0,0,1,177.761,42.252Z" transform="translate(-117.936)" fill="#fff"/>
        <path id="Trazado_838693" data-name="Trazado 838693" d="M353.262,110.987a3.542,3.542,0,0,1,1.99.608,1.133,1.133,0,0,0,1.269-1.879,5.828,5.828,0,1,0-3.259,10.66,4.867,4.867,0,0,0,3.826-1.73,1.134,1.134,0,1,0-1.737-1.457,2.6,2.6,0,0,1-2.089.92,3.561,3.561,0,1,1,0-7.122Z" transform="translate(-300.793 -92.288)" fill="#fff"/>
        <path id="Trazado_838694" data-name="Trazado 838694" d="M271.434,114.548a5.828,5.828,0,1,0-5.828,5.828A5.835,5.835,0,0,0,271.434,114.548Zm-9.389,0a3.561,3.561,0,1,1,3.561,3.561A3.565,3.565,0,0,1,262.045,114.548Z" transform="translate(-226.385 -92.288)" fill="#fff"/>
        <path id="Trazado_838695" data-name="Trazado 838695" d="M194.933,120.376a5.828,5.828,0,1,0,0-11.656h-1.677a1.134,1.134,0,0,0-1.133,1.134v9.389a1.134,1.134,0,0,0,1.133,1.134h1.677Zm-.544-9.389a3.6,3.6,0,1,1,0,7.122Z" transform="translate(-168.954 -92.288)" fill="#fff"/>
        <path id="Trazado_838696" data-name="Trazado 838696" d="M100.954,373.517a1.134,1.134,0,0,0,1.134,1.133h37.557a1.134,1.134,0,0,0,0-2.267H102.088A1.134,1.134,0,0,0,100.954,373.517Z" transform="translate(-91.565 -316.102)" fill="#fff"/>
        <path id="Trazado_838697" data-name="Trazado 838697" d="M140.778,404.578a1.133,1.133,0,0,0-1.134-1.133H102.088a1.134,1.134,0,1,0,0,2.267h37.557A1.134,1.134,0,0,0,140.778,404.578Z" transform="translate(-91.565 -342.47)" fill="#fff"/>
        <path id="Trazado_838698" data-name="Trazado 838698" d="M102.088,434.507a1.134,1.134,0,0,0,0,2.267h21.126a1.134,1.134,0,0,0,0-2.267Z" transform="translate(-91.565 -368.837)" fill="#fff"/>
        <path id="Trazado_838699" data-name="Trazado 838699" d="M241.869,281.463H258.3a1.134,1.134,0,0,0,0-2.267H241.869a1.134,1.134,0,0,0,0,2.267Z" transform="translate(-210.22 -236.999)" fill="#fff"/>
        <path id="Trazado_838700" data-name="Trazado 838700" d="M241.869,312.525H258.3a1.134,1.134,0,1,0,0-2.267H241.869a1.134,1.134,0,1,0,0,2.267Z" transform="translate(-210.22 -263.367)" fill="#fff"/>
        <path id="Trazado_838701" data-name="Trazado 838701" d="M241.869,343.588H258.3a1.134,1.134,0,0,0,0-2.267H241.869a1.134,1.134,0,0,0,0,2.267Z" transform="translate(-210.22 -289.735)" fill="#fff"/>
        <path id="Trazado_838702" data-name="Trazado 838702" d="M139.319,279.225c-.431-1.381-1.9-1.142-2.193.1l-1.748,5.648-1.115-5.639a1.134,1.134,0,1,0-2.224.44l1.829,9.248a1.351,1.351,0,0,0,2.6.112l1.774-5.73L140,289.14a1.352,1.352,0,0,0,2.6-.115l1.837-9.228a1.134,1.134,0,1,0-2.224-.443l-1.119,5.622Z" transform="translate(-117.932 -236.228)" fill="#fff"/>
      </g>
    </g>
  </g>
</svg>
