<svg xmlns="http://www.w3.org/2000/svg" xmlns:xlink="http://www.w3.org/1999/xlink" width="400" height="354.532" viewBox="0 0 400 354.532">
  <defs>
    <clipPath id="clip-path">
      <rect id="Rectángulo_377629" data-name="Rectángulo 377629" width="400" height="354.532" fill="#fff" stroke="#707070" stroke-width="1"/>
    </clipPath>
    <clipPath id="clip-path-2">
      <rect id="Rectángulo_377628" data-name="Rectángulo 377628" width="578.363" height="353.645" transform="translate(0 0)" fill="#faffd7"/>
    </clipPath>
    <clipPath id="clip-path-3">
      <rect id="Rectángulo_377693" data-name="Rectángulo 377693" width="400" height="344.669" fill="none"/>
    </clipPath>
    <clipPath id="clip-path-4">
      <rect id="Rectángulo_377682" data-name="Rectángulo 377682" width="712.818" height="344.669" fill="none"/>
    </clipPath>
    <clipPath id="clip-path-7">
      <rect id="Rectángulo_377684" data-name="Rectángulo 377684" width="10.616" height="37.719" transform="translate(313.475 159.774)" fill="none"/>
    </clipPath>
    <clipPath id="clip-path-9">
      <rect id="Rectángulo_377686" data-name="Rectángulo 377686" width="28.183" height="14.554" transform="translate(44.118 155.14)" fill="none"/>
    </clipPath>
    <clipPath id="clip-path-10">
      <rect id="Rectángulo_377688" data-name="Rectángulo 377688" width="16.263" height="53.933" transform="translate(57.475 82.165)" fill="none"/>
    </clipPath>
    <clipPath id="clip-path-11">
      <rect id="Rectángulo_377690" data-name="Rectángulo 377690" width="5.876" height="1.883" transform="translate(98.503 111.224)" fill="none"/>
    </clipPath>
  </defs>
  <g id="Grupo_1072125" data-name="Grupo 1072125" transform="translate(-1020 -920.727)">
    <g id="Grupo_1072021" data-name="Grupo 1072021" transform="translate(0 -96.273)">
      <g id="Enmascarar_grupo_87" data-name="Enmascarar grupo 87" transform="translate(1020 1017)" clip-path="url(#clip-path)">
        <g id="Grupo_1072014" data-name="Grupo 1072014" transform="translate(19 0.203)">
          <g id="Grupo_1072013" data-name="Grupo 1072013" transform="translate(0 0)" clip-path="url(#clip-path-2)">
            <path id="Trazado_838415" data-name="Trazado 838415" d="M577.188,258.661c-6.7,30.067-33.083,62.374-72.9,75.851q-.831.28-1.679.554C473.647,344.4,427.6,347.732,387.946,347c-15.4-.285-29.837-1.183-41.931-2.579-15-1.733-29.51-1.341-44.3-.031-6.227.55-12.505,1.265-18.89,2.053-34.487,4.254-72.088,10.639-121.859,4.962q-7.489-.853-15.359-2.086a431.706,431.706,0,0,1-65.362-15.875C47.083,322.757,16.541,305.792,4.417,282.1c-3.1-6.065-5.071-12.51-4.218-18.91,1.695-12.668,13.921-23.3,24.418-33.793a217.637,217.637,0,0,0,33.126-42.1c4.865-8.153,9.1-16.789,8.2-25.576C63.982,142.52,39.068,128.6,27.065,111.2,16.2,95.457,16.529,76.3,27.927,60.732S61.549,33.525,86.473,30.066C140.778,22.531,198.089,52,249.957,38.644,276.87,31.716,304.992,18.4,331.18,10.267,443.127-24.5,535.037,36.215,530.6,85.454c-3.67,40.739-22.633,41.9-49.226,74.964-3.595,4.468-5.216,9.769-4.29,14.83,1.9,10.414,16.517,17.52,30.935,21.08s30.188,5.053,43.02,10.794c23.507,10.518,30.382,32.529,26.148,51.539" transform="translate(0.001 -0.002)" fill="#faffd7"/>
          </g>
        </g>
      </g>
      <g id="Grupo_1072019" data-name="Grupo 1072019" transform="translate(1304.181 1076.133)">
        <g id="Grupo_151704" data-name="Grupo 151704" transform="translate(0 9.699)">
          <path id="Trazado_212295" data-name="Trazado 212295" d="M-11425.02-11468v19.4" transform="translate(11434.719 11467.999)" fill="none" stroke="#0a5e6b" stroke-width="5"/>
          <path id="Trazado_212296" data-name="Trazado 212296" d="M0,0V19.4" transform="translate(19.398 9.699) rotate(90)" fill="none" stroke="#0a5e6b" stroke-width="5"/>
        </g>
        <g id="Grupo_151705" data-name="Grupo 151705" transform="translate(25.218 0)">
          <path id="Trazado_212295-2" data-name="Trazado 212295" d="M-11425.02-11468v19.4" transform="translate(11434.719 11467.999)" fill="none" stroke="#0a5e6b" stroke-width="5"/>
          <path id="Trazado_212296-2" data-name="Trazado 212296" d="M0,0V19.4" transform="translate(19.398 9.699) rotate(90)" fill="none" stroke="#0a5e6b" stroke-width="5"/>
        </g>
        <g id="Grupo_151706" data-name="Grupo 151706" transform="translate(29.421 29.097)">
          <path id="Trazado_212295-3" data-name="Trazado 212295" d="M-11425.02-11468v19.4" transform="translate(11434.719 11467.999)" fill="none" stroke="#0a5e6b" stroke-width="5"/>
          <path id="Trazado_212296-3" data-name="Trazado 212296" d="M0,0V19.4" transform="translate(19.398 9.699) rotate(90)" fill="none" stroke="#0a5e6b" stroke-width="5"/>
        </g>
      </g>
      <g id="Grupo_1072020" data-name="Grupo 1072020" transform="translate(1368 1049.072)">
        <g id="Grupo_151688" data-name="Grupo 151688" transform="translate(0 7.064)">
          <path id="Trazado_212295-4" data-name="Trazado 212295" d="M-11425.02-11468v14.128" transform="translate(11432.083 11467.998)" fill="none" stroke="#0a5e6b" stroke-width="4"/>
          <path id="Trazado_212296-4" data-name="Trazado 212296" d="M0,0V14.127" transform="translate(14.127 7.064) rotate(90)" fill="none" stroke="#0a5e6b" stroke-width="4"/>
        </g>
        <g id="Grupo_151689" data-name="Grupo 151689" transform="translate(18.366)">
          <path id="Trazado_212295-5" data-name="Trazado 212295" d="M-11425.02-11468v14.128" transform="translate(11432.083 11467.998)" fill="none" stroke="#0a5e6b" stroke-width="4"/>
          <path id="Trazado_212296-5" data-name="Trazado 212296" d="M0,0V14.127" transform="translate(14.127 7.064) rotate(90)" fill="none" stroke="#0a5e6b" stroke-width="4"/>
        </g>
        <g id="Grupo_151690" data-name="Grupo 151690" transform="translate(21.427 21.191)">
          <path id="Trazado_212295-6" data-name="Trazado 212295" d="M-11425.02-11468v14.128" transform="translate(11432.083 11467.998)" fill="none" stroke="#0a5e6b" stroke-width="4"/>
          <path id="Trazado_212296-6" data-name="Trazado 212296" d="M0,0V14.127" transform="translate(14.127 7.064) rotate(90)" fill="none" stroke="#0a5e6b" stroke-width="4"/>
        </g>
      </g>
    </g>
    <g id="Grupo_1072090" data-name="Grupo 1072090" transform="translate(1020 930.59)">
      <g id="Grupo_1072089" data-name="Grupo 1072089" clip-path="url(#clip-path-3)">
        <g id="Grupo_1072068" data-name="Grupo 1072068">
          <g id="Grupo_1072067" data-name="Grupo 1072067" clip-path="url(#clip-path-4)">
            <path id="Trazado_838593" data-name="Trazado 838593" d="M712.818,344.409c0,.144-159.583.26-356.392.26C159.548,344.669,0,344.553,0,344.409s159.548-.26,356.426-.26c196.809,0,356.392.116,356.392.26" fill="#263238"/>
          </g>
        </g>
        <g id="Grupo_1072070" data-name="Grupo 1072070">
          <g id="Grupo_1072069" data-name="Grupo 1072069" clip-path="url(#clip-path-4)">
            <path id="Trazado_838594" data-name="Trazado 838594" d="M125.688,42.456l2-6.709a23.364,23.364,0,1,1,5.595,6.223l.008.011Z" fill="#fff"/>
            <path id="Trazado_838595" data-name="Trazado 838595" d="M125.688,42.456s.152,0,.472-.013l1.441-.067,5.7-.294a.1.1,0,0,0,.1-.106.11.11,0,0,0-.022-.057l-.008-.011-.142.142A23.349,23.349,0,0,0,143.742,46.7a23.054,23.054,0,0,0,7.5.019,23.328,23.328,0,0,0,15.017-8.93,23.451,23.451,0,0,0-.971-29.731,23.278,23.278,0,0,0-9.311-6.5A23.929,23.929,0,0,0,145.228.107a23.531,23.531,0,0,0-21.1,24.784A23.216,23.216,0,0,0,127.61,35.8l-.01-.079c-.626,2.184-1.11,3.872-1.444,5.039-.154.547-.272.97-.359,1.278a4.3,4.3,0,0,0-.109.42s.057-.158.151-.45c.1-.311.234-.739.409-1.291.356-1.144.872-2.8,1.539-4.94a.1.1,0,0,0-.011-.079,23.212,23.212,0,0,1,17.5-35.14,23.5,23.5,0,0,1,10.535,1.436,22.849,22.849,0,0,1,9.123,6.372,23.094,23.094,0,0,1-13.748,38,22.828,22.828,0,0,1-7.39.026,23.364,23.364,0,0,1-10.442-4.5.1.1,0,0,0-.142.017.1.1,0,0,0,0,.125l.008.011.074-.163-5.624.413-1.466.115c-.332.027-.512.048-.512.048" fill="#263238"/>
            <path id="Trazado_838596" data-name="Trazado 838596" d="M153.371,23.731a3.056,3.056,0,1,0,3.056-3.056,3.056,3.056,0,0,0-3.056,3.056" fill="#263238"/>
            <path id="Trazado_838597" data-name="Trazado 838597" d="M144.536,23.731a3.057,3.057,0,1,0,3.056-3.056,3.056,3.056,0,0,0-3.056,3.056" fill="#263238"/>
            <path id="Trazado_838598" data-name="Trazado 838598" d="M136.112,22.2a3.056,3.056,0,1,0,4.175-1.119,3.056,3.056,0,0,0-4.175,1.119" fill="#263238"/>
          </g>
        </g>
        <g id="Grupo_1072075" data-name="Grupo 1072075">
          <g id="Grupo_1072074" data-name="Grupo 1072074" clip-path="url(#clip-path-4)">
            <path id="Trazado_838599" data-name="Trazado 838599" d="M336.425,78.1a5.114,5.114,0,0,1,4.259-1.594,2.933,2.933,0,0,0,1.877-.086,4.123,4.123,0,0,0,.878-1.044,2.591,2.591,0,0,1,3.726-.156,3.1,3.1,0,0,0,.744.712c1.249.63,2.581-1.713,3.822-1.07a2.933,2.933,0,0,0-1.362,1.1,1.333,1.333,0,0,0,.176,1.634c1.172,1,3.042-1.3,4.344-.48.7.444.816,1.626,1.626,1.808a2.8,2.8,0,0,0,.954-.084,2.132,2.132,0,0,1,2.292,1.8c.107.916-.339,2.045.359,2.648a1.992,1.992,0,0,0,1.642.209,5.539,5.539,0,0,1-.565,2.442,3.34,3.34,0,0,1,1.187,4.477,7.136,7.136,0,0,1,1.956,1.943,2.481,2.481,0,0,1,.057,2.624,2.269,2.269,0,0,0-.344.526,1.242,1.242,0,0,0,.009.673,11.484,11.484,0,0,1,.565,2.563c-.013.878-.649,1.85-1.525,1.788-.2-.015-.43-.08-.6.035a.582.582,0,0,0-.205.4,5.979,5.979,0,0,0,.154,1.878,2.52,2.52,0,0,1-.255,1.829,1.078,1.078,0,0,1-1.621.22q.4,1.459.793,2.919a1.79,1.79,0,0,1-.129,1.71c-.546.565-1.553.141-1.983-.517s-.555-1.481-1-2.127a4.715,4.715,0,0,1-.543-.792c-.1-.234-.135-.514-.333-.673-.4-.319-.995.239-.934.745a2.686,2.686,0,0,0,.8,1.278,1.3,1.3,0,0,1,.34,1.393c-.122.214-.347.355-.464.572-.4.75.7,1.457.838,2.3a2.051,2.051,0,0,1-.78,1.64c-.536.55-1.582,1-1.934.321a7.06,7.06,0,0,1-.179-.776,1.926,1.926,0,0,0-.615-.692,4,4,0,0,1-1.212-1.946c.659.79,1.357,1.837.911,2.764a4.248,4.248,0,0,1-.836.975c-.576.616-.928,1.414-1.5,2.038a1.969,1.969,0,0,1-2.253.658,1.9,1.9,0,0,1-3.151,1.933,1.674,1.674,0,0,0-.525-.452,1.35,1.35,0,0,0-.741.03,4.111,4.111,0,0,1-4-1.536l.751-.277a9.554,9.554,0,0,1-4.275-1.188,3.278,3.278,0,0,1-1.446-3.853c.269-.588.792-1.2.542-1.793a1.6,1.6,0,0,0-1.066-.738l-5.311-1.781a4.94,4.94,0,0,1-2.343-1.3,1.705,1.705,0,0,1,.1-2.412,4.855,4.855,0,0,0-1.861-1.954c-.886-.515-1.913-.736-2.822-1.21a2.768,2.768,0,0,1-1.693-2.364c.049-1.023,1.447-1.834,2.162-1.1-.163-1.538-2.908-1.592-3.167-3.117-.21-1.239,1.37-1.908,2.173-2.873-.173-.429-.618-.7-.8-1.122-.39-.888.525-1.8,1.394-2.226s1.932-.869,2.13-1.819c.2-.972-.644-2.054-.142-2.91a1.1,1.1,0,0,1,1.438-.381c.679-1.785,4.04-.5,4.99-2.157a.687.687,0,0,0,.107-.432.733.733,0,0,0-.175-.345,7.723,7.723,0,0,0-1.488-1.1,1.5,1.5,0,0,1-.7-1.586c.213-.582,1.312-.579,1.309.041a1.364,1.364,0,0,1,2.094.493,1.475,1.475,0,0,1,1.844-.2,4.3,4.3,0,0,1,1.34,1.484" fill="#263238"/>
            <path id="Trazado_838600" data-name="Trazado 838600" d="M345.128,97.58c-.647-2.526-2.6-4.517-4.737-6.016a6.661,6.661,0,0,0-2.958-1.336,2.8,2.8,0,0,0-2.812,1.266l.219,1.816c-.119,2.9,2.21,5.252,3.378,7.913.509,1.157.94,2.554,2.119,3.01a2.72,2.72,0,0,0,1.941-.093c2.429-.947,3.5-4.034,2.85-6.56" fill="#1fd27a"/>
            <path id="Trazado_838601" data-name="Trazado 838601" d="M345.906,110.956a5.828,5.828,0,0,0-.914-7.417c.993-1.393.5-3.435-.651-4.7a11.4,11.4,0,0,0-4.387-2.572,7.846,7.846,0,0,0-9.436-5.234c-2.185-2.871-6.527-3.109-9.933-1.916a9.224,9.224,0,0,1-2.539.7,14.926,14.926,0,0,1-1.93-.163c-3.545-.286-6.906,2.378-8.1,5.726a6.531,6.531,0,0,1-.666,1.564,8.816,8.816,0,0,1-1.665,1.482,5.629,5.629,0,0,0-1.931,4.27c.015,1.37.528,2.8.018,4.069-.255.638-.749,1.168-.94,1.828-.55,1.912,1.633,3.72,1.352,5.69-.058.4-.217.782-.307,1.178a3.473,3.473,0,0,0,.341,2.413,4.984,4.984,0,0,1,.856,1.7,5.647,5.647,0,0,1-.208,1.437c-.176,1.177,2.574,5.53,3.613,6.109l30.062-1.333a5.624,5.624,0,0,0,4.087-5.067,2.065,2.065,0,0,1,.221-1.12,2.421,2.421,0,0,1,.792-.576c1.879-1.142,1.971-3.811,1.651-5.987a2.678,2.678,0,0,1-.032-.918,3.356,3.356,0,0,1,.649-1.164" fill="#263238"/>
            <path id="Trazado_838602" data-name="Trazado 838602" d="M337.344,111.458a16.116,16.116,0,0,0-9.277-13.574,19.9,19.9,0,0,0-7.777-1.445,12.181,12.181,0,0,0-7.007,1.865c-1.636.477-7.409,6.358-7.4,12.4.008,6.718.281,14.92,1.394,19.861,2.238,9.937,10.014,10.722,10.014,10.722,0-.016-.25,7.013-.25,7.013l21.6-1.6Z" fill="#ae7461"/>
            <path id="Trazado_838603" data-name="Trazado 838603" d="M322.187,128.1a2.123,2.123,0,0,0-.745-1.3,2.168,2.168,0,0,0-2.629-.126,2.9,2.9,0,0,0-1.077,2.734,2.64,2.64,0,0,0,1.9,1.078,3.214,3.214,0,0,0,.354.008,2.37,2.37,0,0,0,1.591-.647,2.112,2.112,0,0,0,.608-1.746" fill="#6f4439"/>
            <path id="Trazado_838604" data-name="Trazado 838604" d="M308.581,118.51a1.288,1.288,0,0,0,1.324,1.219,1.234,1.234,0,0,0,1.253-1.245,1.291,1.291,0,0,0-1.323-1.221,1.234,1.234,0,0,0-1.254,1.247" fill="#263238"/>
            <path id="Trazado_838605" data-name="Trazado 838605" d="M308.387,114.415c.171.158,1.1-.626,2.485-.712,1.383-.105,2.446.543,2.585.364.069-.08-.113-.373-.576-.667a3.541,3.541,0,0,0-2.083-.5,3.4,3.4,0,0,0-1.964.776c-.405.354-.53.667-.447.737" fill="#263238"/>
            <path id="Trazado_838606" data-name="Trazado 838606" d="M317.194,124.836a9.192,9.192,0,0,0-2.276-.262c-.356-.014-.7-.062-.771-.3a1.812,1.812,0,0,1,.169-1.064q.417-1.315.874-2.761a46.469,46.469,0,0,0,1.9-7.2c-.159-.048-1.266,3.1-2.473,7.027q-.434,1.452-.829,2.774a2.049,2.049,0,0,0-.094,1.4.891.891,0,0,0,.615.48,2.374,2.374,0,0,0,.606.045,9.013,9.013,0,0,0,2.281-.143" fill="#263238"/>
            <path id="Trazado_838607" data-name="Trazado 838607" d="M317.288,141.291a25.59,25.59,0,0,0,13.215-4.448s-3.195,7.211-13.3,6.916Z" fill="#6f4439"/>
            <path id="Trazado_838608" data-name="Trazado 838608" d="M321.333,125.533c-.226,0-.133,1.505-1.352,2.655s-2.829,1.087-2.828,1.3c-.015.1.376.27,1.053.244a3.749,3.749,0,0,0,2.367-1,3.267,3.267,0,0,0,1.037-2.22c.017-.632-.175-.994-.277-.979" fill="#263238"/>
            <path id="Trazado_838609" data-name="Trazado 838609" d="M308.615,109.188c.254.324,1.3.029,2.547.053,1.247-.017,2.294.284,2.547-.038.112-.157-.045-.478-.5-.79a3.948,3.948,0,0,0-4.105-.013c-.45.311-.605.631-.493.788" fill="#263238"/>
            <path id="Trazado_838610" data-name="Trazado 838610" d="M323.542,118.06a1.289,1.289,0,0,1-1.209,1.334,1.234,1.234,0,0,1-1.36-1.127,1.291,1.291,0,0,1,1.207-1.335,1.235,1.235,0,0,1,1.362,1.128" fill="#263238"/>
            <path id="Trazado_838611" data-name="Trazado 838611" d="M327.378,113.744c-.155.172-1.152-.524-2.539-.484-1.387.02-2.387.762-2.542.6-.076-.073.08-.381.514-.715a3.538,3.538,0,0,1,2.029-.685,3.406,3.406,0,0,1,2.027.6c.435.316.588.616.511.694" fill="#263238"/>
            <path id="Trazado_838612" data-name="Trazado 838612" d="M327.473,109.074c-.266.322-1.345.024-2.633.042-1.288-.021-2.372.275-2.632-.048-.114-.157.049-.477.519-.788a4.2,4.2,0,0,1,4.24,0c.463.312.622.633.506.79" fill="#263238"/>
            <path id="Trazado_838613" data-name="Trazado 838613" d="M336.292,121.076c-.046-.748.705-2.566,1.436-2.728,1.952-.434,5.516-.5,5.87,4.5.483,6.841-6.485,5.916-6.512,5.72-.02-.152-.635-4.912-.794-7.494" fill="#ae7461"/>
            <path id="Trazado_838614" data-name="Trazado 838614" d="M338.8,125.938c.029-.024.125.075.333.153a1.193,1.193,0,0,0,.892-.045A2.955,2.955,0,0,0,341.2,123.3a3.955,3.955,0,0,0-.454-1.683,1.378,1.378,0,0,0-.962-.851.609.609,0,0,0-.68.376c-.078.2-.025.331-.061.345-.017.019-.155-.1-.119-.39a.762.762,0,0,1,.239-.448.9.9,0,0,1,.646-.221,1.678,1.678,0,0,1,1.32.973,4.043,4.043,0,0,1,.548,1.878,3.1,3.1,0,0,1-1.529,3.077,1.277,1.277,0,0,1-1.1-.1c-.224-.153-.271-.3-.248-.318" fill="#6f4439"/>
            <path id="Trazado_838615" data-name="Trazado 838615" d="M304.323,110.9a3.99,3.99,0,0,0,1.947-3.807c.934.215,1.79-1.025,2.275-1.853s1.114-1.269,1.013-2.222a1.08,1.08,0,0,1,.033-.56c.122-.271.442-.378.72-.484a4.6,4.6,0,0,0,2.818-3.378,9.723,9.723,0,0,0,4.74.477,3.715,3.715,0,0,0,6.256-.671,3.33,3.33,0,0,0,2.328,1.5,9.859,9.859,0,0,0,2.849-.026,3.933,3.933,0,0,0,2.866,4.282c.248.059.534.116.661.337a1,1,0,0,1-.058.77,3.1,3.1,0,0,0,2.319,3.8,2.308,2.308,0,0,0,.437,3.6c.258.135.6.295.575.586a.661.661,0,0,1-.132.3,4.485,4.485,0,0,0-.936,2.33,1.656,1.656,0,0,0,1.472,1.745,2.2,2.2,0,0,0-.775,1.555c.027.6.668,1.163,1.209.913.23-.106,3.6-.992,3.733-1.205,1.771-2.752-.85-5.5-1.248-8.75a21.257,21.257,0,0,0-3.545-9.059,15.523,15.523,0,0,0-2.639-3.145A20.712,20.712,0,0,0,329.3,95.4a18.9,18.9,0,0,0-5.657-2.27c-3.749-.637-7.5.948-10.846,2.758a16.068,16.068,0,0,0-3.579,2.428,14.6,14.6,0,0,0-2.874,4.289,18.192,18.192,0,0,0-2.033,7.164" fill="#263238"/>
            <path id="Trazado_838616" data-name="Trazado 838616" d="M302.829,108.592a2.637,2.637,0,0,1,.323-.758c.131-.236.319-.514.492-.866a3.2,3.2,0,0,0,.3-1.3,10,10,0,0,0-.136-1.691,7.54,7.54,0,0,1-.072-2.036,5.688,5.688,0,0,1,.766-2.212,5.6,5.6,0,0,1,.781-1.022,8.471,8.471,0,0,1,1.031-.871,4.262,4.262,0,0,0,.985-.962,5.519,5.519,0,0,0,.568-1.329,9.2,9.2,0,0,1,4.024-4.955,8.152,8.152,0,0,1,1.61-.722,7.38,7.38,0,0,1,1.786-.315,8.451,8.451,0,0,1,.927.016c.309.028.615.074.921.109a4.419,4.419,0,0,0,1.829-.111c.606-.159,1.193-.417,1.816-.614a12.047,12.047,0,0,1,3.924-.606,10.4,10.4,0,0,1,2.031.246,6.761,6.761,0,0,1,3.587,2.06l.274.322-.112-.037a7.958,7.958,0,0,1,9.561,5.307l-.059-.065a21.885,21.885,0,0,1,2.479,1.118,7.25,7.25,0,0,1,2.067,1.632,4.7,4.7,0,0,1,1.037,2.308,3.238,3.238,0,0,1-.511,2.354l-.013-.114a5.682,5.682,0,0,1,1.793,3.417,5.818,5.818,0,0,1-.5,3.446,5.565,5.565,0,0,1-.413.705,7.539,7.539,0,0,0-.434.641,1.476,1.476,0,0,0-.2.686,4.325,4.325,0,0,0,.063.709,11.228,11.228,0,0,1,.088,2.6,5.452,5.452,0,0,1-.552,2.019,3.365,3.365,0,0,1-1,1.177c-.339.254-.646.364-.812.5a1.518,1.518,0,0,0-.236.222.787.787,0,0,1,.22-.243c.165-.147.471-.266.8-.523a3.35,3.35,0,0,0,.96-1.17,5.426,5.426,0,0,0,.521-1.993,11.251,11.251,0,0,0-.108-2.577,4.285,4.285,0,0,1-.07-.73,1.6,1.6,0,0,1,.214-.745,7.458,7.458,0,0,1,.437-.655,5.541,5.541,0,0,0,.4-.689,5.683,5.683,0,0,0,.472-3.361,5.522,5.522,0,0,0-1.752-3.312l-.058-.052.045-.063a3.062,3.062,0,0,0,.473-2.229,4.521,4.521,0,0,0-1-2.214,7.054,7.054,0,0,0-2.017-1.583,21.708,21.708,0,0,0-2.459-1.1l-.045-.018-.013-.048a7.763,7.763,0,0,0-9.311-5.161l-.065.019-.047-.055-.266-.31a6.555,6.555,0,0,0-3.478-2,10.316,10.316,0,0,0-1.988-.242,11.878,11.878,0,0,0-3.858.592c-.612.192-1.2.452-1.827.615a4.721,4.721,0,0,1-.952.158,5.644,5.644,0,0,1-.95-.045c-.311-.036-.615-.082-.917-.111a8.217,8.217,0,0,0-.9-.017,7.226,7.226,0,0,0-1.74.3,8.077,8.077,0,0,0-1.574.7,9.059,9.059,0,0,0-3.964,4.85,5.678,5.678,0,0,1-.592,1.362,4.389,4.389,0,0,1-1.023.993,8.306,8.306,0,0,0-1.02.852,5.523,5.523,0,0,0-.769.993,5.6,5.6,0,0,0-.764,2.159,7.51,7.51,0,0,0,.056,2.008,9.888,9.888,0,0,1,.118,1.708A3.241,3.241,0,0,1,303.7,107c-.181.355-.375.628-.511.86a4,4,0,0,0-.281.543c-.054.127-.073.2-.078.194" fill="#455a64"/>
            <path id="Trazado_838617" data-name="Trazado 838617" d="M327.212,89.727c-.009.016-.187-.092-.53-.235a4.6,4.6,0,0,0-1.519-.344,4.331,4.331,0,0,0-2.23.466A4.472,4.472,0,0,0,321,91.594a3.805,3.805,0,0,0-.293.795.857.857,0,0,0,.094.718l.181.223-.281-.061a2.834,2.834,0,0,0-2.1.382,2.73,2.73,0,0,0-1.083,1.338,3,3,0,0,0-.2,1.144c.008.274.039.424.023.427s-.019-.035-.037-.106a1.788,1.788,0,0,1-.055-.317A2.861,2.861,0,0,1,318.5,93.5a2.988,2.988,0,0,1,2.24-.432l-.1.162a1.05,1.05,0,0,1-.139-.888,3.986,3.986,0,0,1,.308-.843,4.589,4.589,0,0,1,2.034-2.059A4.377,4.377,0,0,1,325.173,89a4.3,4.3,0,0,1,1.542.416,3.072,3.072,0,0,1,.378.215c.082.056.123.088.119.094" fill="#455a64"/>
            <path id="Trazado_838618" data-name="Trazado 838618" d="M338.8,96.906a1.037,1.037,0,0,1-.224.259,4.464,4.464,0,0,1-.742.586,3.275,3.275,0,0,1-1.34.493,2.449,2.449,0,0,1-1.732-.41l.151-.032-.184.293c-.067.1-.144.189-.217.284a4.147,4.147,0,0,1-1.645,1.169,4.264,4.264,0,0,1-1.619.305,3.765,3.765,0,0,1-1.094-.18,1.336,1.336,0,0,1-.368-.169,5.9,5.9,0,0,0,1.461.2,4.347,4.347,0,0,0,1.548-.335,4.1,4.1,0,0,0,1.559-1.126c.069-.09.141-.177.2-.268l.175-.276.061-.1.089.065a2.311,2.311,0,0,0,1.59.393,3.275,3.275,0,0,0,1.29-.43c.677-.4,1.012-.755,1.036-.727" fill="#455a64"/>
            <path id="Trazado_838619" data-name="Trazado 838619" d="M342.808,103.033c.007,0,0,.044-.009.127a1.172,1.172,0,0,1-.132.34,1.827,1.827,0,0,1-1.058.8,3.489,3.489,0,0,1-1.969-.092,11.064,11.064,0,0,1-1.106-.36,1.88,1.88,0,0,1-1-.8l-.049-.107.164.039a7.868,7.868,0,0,1-1.955,1.344,3.541,3.541,0,0,1-1.911.316,2.548,2.548,0,0,1-1.217-.466,1.634,1.634,0,0,1-.264-.238c-.052-.062-.077-.1-.072-.1s.129.112.381.273a2.652,2.652,0,0,0,1.188.388,3.486,3.486,0,0,0,1.816-.345,8.05,8.05,0,0,0,1.9-1.326l.1-.092.061.131.041.09a1.7,1.7,0,0,0,.893.711c.359.148.733.258,1.08.364a3.444,3.444,0,0,0,1.875.135,1.811,1.811,0,0,0,1.031-.7,2.9,2.9,0,0,0,.21-.425" fill="#455a64"/>
            <path id="Trazado_838620" data-name="Trazado 838620" d="M348.638,78.138c0,.014-.118.012-.322.078a1.561,1.561,0,0,0-.733.54,2.14,2.14,0,0,0-.435,1.339,6.292,6.292,0,0,0,.371,1.852l.034.108-.115,0a3.9,3.9,0,0,0-2.323.87,3.029,3.029,0,0,0-1.15,2.476,2.813,2.813,0,0,0,1.136,2.22l.241.166-.293.016a3.539,3.539,0,0,0-2.525,1.3,3.39,3.39,0,0,0-.745,2.155,3.679,3.679,0,0,0,.323,1.5c.15.33.268.491.254.5s-.037-.035-.1-.112a2.468,2.468,0,0,1-.221-.359,3.539,3.539,0,0,1-.388-1.526A3.48,3.48,0,0,1,342.39,89a3.687,3.687,0,0,1,2.649-1.392l-.051.181a3,3,0,0,1-1.23-2.376,3.091,3.091,0,0,1,.314-1.5,3.468,3.468,0,0,1,.917-1.137,4.036,4.036,0,0,1,2.445-.89l-.081.111a6.2,6.2,0,0,1-.346-1.9,2.217,2.217,0,0,1,.5-1.4,1.555,1.555,0,0,1,.8-.528,1,1,0,0,1,.251-.034c.057,0,.086,0,.086.007" fill="#455a64"/>
            <path id="Trazado_838621" data-name="Trazado 838621" d="M361.768,92.22s-.034.029-.108.073-.181.111-.332.178a4.876,4.876,0,0,1-1.359.4,5.43,5.43,0,0,1-2.167-.125,5.2,5.2,0,0,1-2.4-1.369l.155-.023a4.365,4.365,0,0,1-2.951,2.3,3.309,3.309,0,0,1-3.521-1.6l.177-.018a2.75,2.75,0,0,1-.752,1.212,3.64,3.64,0,0,1-1.084.7,5.028,5.028,0,0,1-2.07.347A9.8,9.8,0,0,1,344,94.162a2.534,2.534,0,0,1-.477-.1A3.275,3.275,0,0,1,344,94.1a12.812,12.812,0,0,0,1.351.08,5.062,5.062,0,0,0,2-.378,2.97,2.97,0,0,0,1.715-1.822l.067-.235.111.217a3.127,3.127,0,0,0,3.312,1.487,4.2,4.2,0,0,0,2.819-2.188l.062-.117.093.1a5.079,5.079,0,0,0,2.3,1.345,5.45,5.45,0,0,0,2.109.166,6.385,6.385,0,0,0,1.815-.531" fill="#455a64"/>
            <path id="Trazado_838622" data-name="Trazado 838622" d="M355.2,102.676c.005,0-.007.054-.073.129a.694.694,0,0,1-.376.2,3.164,3.164,0,0,1-1.529-.158A3.727,3.727,0,0,1,351.4,101.5a3.811,3.811,0,0,1-.672-2.691l0-.021.155.1a4.45,4.45,0,0,1-2.72.547,4.938,4.938,0,0,1-2.135-.769,5.5,5.5,0,0,1-1.161-.993,2.057,2.057,0,0,1-.335-.448,8.28,8.28,0,0,0,1.573,1.317,4.97,4.97,0,0,0,2.077.7,4.338,4.338,0,0,0,2.6-.536l.178-.1-.023.208,0,.02a3.608,3.608,0,0,0,2.347,3.873,3.314,3.314,0,0,0,1.464.217.7.7,0,0,0,.465-.247" fill="#455a64"/>
            <path id="Trazado_838623" data-name="Trazado 838623" d="M333.691,79.308a5.846,5.846,0,0,0-.18,2.122,4.619,4.619,0,0,0,2.994,3.833,4.7,4.7,0,0,0,1.589.307l.127,0-.03.123a6.042,6.042,0,0,0-.114,2.226,6.133,6.133,0,0,0,.5,1.713,4.345,4.345,0,0,0,.317.594.517.517,0,0,0,.379.256.34.34,0,0,0,.27-.1c.046-.051.052-.092.06-.089s.011.043-.031.111a.367.367,0,0,1-.3.149.586.586,0,0,1-.46-.265,4.14,4.14,0,0,1-.353-.6,5.927,5.927,0,0,1-.553-1.744,6.008,6.008,0,0,1,.091-2.3l.1.125a4.823,4.823,0,0,1-1.662-.316,4.877,4.877,0,0,1-2.277-1.781,4.8,4.8,0,0,1-.788-2.23,4.613,4.613,0,0,1,.122-1.59,3.254,3.254,0,0,1,.136-.411c.037-.092.06-.139.067-.136" fill="#455a64"/>
            <path id="Trazado_838624" data-name="Trazado 838624" d="M261.129,312.051l1.763,19.823s-19.479,8.031-19.51,11.726l38.481-1.619-1.479-31Z" fill="#455a64"/>
            <path id="Trazado_838625" data-name="Trazado 838625" d="M281.863,341.979l-.118-2.469-37.317,2.322a2.937,2.937,0,0,0-1.228,1.984Z" fill="#263238"/>
            <path id="Trazado_838626" data-name="Trazado 838626" d="M262.548,332.018c.016.189.969.225,1.934.786.98.535,1.505,1.331,1.675,1.247.173-.046-.17-1.165-1.35-1.823s-2.309-.382-2.259-.21" fill="#263238"/>
            <path id="Trazado_838627" data-name="Trazado 838627" d="M258.564,333.918c-.034.186.8.465,1.491,1.233.709.748.917,1.607,1.106,1.589.179.02.252-1.1-.619-2.036s-1.983-.967-1.978-.786" fill="#263238"/>
            <path id="Trazado_838628" data-name="Trazado 838628" d="M256.508,338.916c.174.031.388-.93-.154-1.943s-1.45-1.379-1.522-1.217c-.1.162.506.688.938,1.527.452.828.549,1.624.738,1.633" fill="#263238"/>
            <path id="Trazado_838629" data-name="Trazado 838629" d="M262.648,327.424c.089.168.945-.139,2.021-.123,1.076-.006,1.929.31,2.019.142.1-.143-.749-.8-2.017-.8s-2.124.64-2.023.784" fill="#263238"/>
            <path id="Trazado_838630" data-name="Trazado 838630" d="M220.64,272.456,209.993,289.27s-20.35-5.46-22.62-2.545l31.543,22.1,17.665-25.518Z" fill="#455a64"/>
            <path id="Trazado_838631" data-name="Trazado 838631" d="M218.917,308.824l1.407-2.033-31.046-20.835a2.939,2.939,0,0,0-2.181.83Z" fill="#263238"/>
            <path id="Trazado_838632" data-name="Trazado 838632" d="M209.632,289.175c-.1.16.633.768,1.059,1.8.452,1.021.385,1.972.572,2.008.165.069.573-1.028.035-2.268s-1.6-1.706-1.666-1.539" fill="#263238"/>
            <path id="Trazado_838633" data-name="Trazado 838633" d="M205.314,288.263c-.141.128.355.859.433,1.886.11,1.024-.246,1.833-.087,1.933.132.125.869-.718.746-1.993s-.987-1.973-1.092-1.826" fill="#263238"/>
            <path id="Trazado_838634" data-name="Trazado 838634" d="M200.644,290.982c.119.131.874-.5,1.059-1.636s-.314-1.977-.47-1.892c-.176.068-.016.854-.182,1.783-.145.932-.552,1.623-.407,1.745" fill="#263238"/>
            <path id="Trazado_838635" data-name="Trazado 838635" d="M212.5,285.587c-.032.188.835.464,1.679,1.13.858.65,1.344,1.419,1.518,1.34.168-.051-.108-1.091-1.114-1.863s-2.076-.783-2.083-.607" fill="#263238"/>
            <path id="Trazado_838636" data-name="Trazado 838636" d="M214.354,281.661c-.046.064.507.585,1.613,1.092a8.764,8.764,0,0,0,2.035.635,9.126,9.126,0,0,0,1.258.142,2.4,2.4,0,0,0,.744-.045.829.829,0,0,0,.642-.785,1.04,1.04,0,0,0-.441-.828,2.539,2.539,0,0,0-.66-.33,6.869,6.869,0,0,0-3.381-.383,3.252,3.252,0,0,0-1.839.658c.036.1.734-.142,1.881-.192a7.768,7.768,0,0,1,1.986.173,7.307,7.307,0,0,1,1.118.348c.4.143.692.339.675.55-.008.079-.019.1-.158.155a1.94,1.94,0,0,1-.546.032,10.246,10.246,0,0,1-1.181-.1,10.882,10.882,0,0,1-1.961-.468,13.441,13.441,0,0,0-1.785-.658" fill="#263238"/>
            <path id="Trazado_838637" data-name="Trazado 838637" d="M317.526,218c-.755,0,2.851,10-23.581,13.523s-36.388,7.385-41.422,13.678,7.459,79.251,7.459,79.251l22.8-.6s-2.409-37.157-2.913-42.191-3.971-18.293-3.971-18.293l55.918.57c.327,0,.652,0,.977-.011,12.481-.4,22.193-16.429,21.162-28.874l-1.233-6.751Z" fill="#263238"/>
            <path id="Trazado_838638" data-name="Trazado 838638" d="M317.147,222.825s-25.928-7.3-39.773-8.559-21.879,1.014-24.234,3.56c-5.481,5.925-41.573,64.49-41.573,64.49l19.257,13.225s31.7-44.774,40.508-56.6l3.038-3.606,43.156-5.945Z" fill="#263238"/>
            <path id="Trazado_838639" data-name="Trazado 838639" d="M313.891,227.5a.815.815,0,0,1-.19.056l-.563.129-2.173.464-8,1.643-26.43,5.287-2.127.42.13-.109a72.409,72.409,0,0,1-13.971,21.25,61.253,61.253,0,0,1-5.65,5.174l-1.651,1.259-.434.319a.683.683,0,0,1-.154.1.768.768,0,0,1,.134-.128l.412-.346,1.609-1.306a67.733,67.733,0,0,0,5.558-5.238,73.526,73.526,0,0,0,7.091-8.906,71.752,71.752,0,0,0,6.727-12.3l.038-.091.092-.019,2.127-.421,26.451-5.186,8.025-1.532,2.185-.4.57-.1a.811.811,0,0,1,.2-.021" fill="#455a64"/>
            <path id="Trazado_838640" data-name="Trazado 838640" d="M349.737,268.837h4.1a4.279,4.279,0,0,0,4.234-3.782c.808-6.741,2.414-25.508,2.43-25.7l-2.921-.254c-.016.189-1.618,18.9-2.42,25.6a1.335,1.335,0,0,1-1.323,1.179h-4.1Z" fill="#e0e0e0"/>
            <path id="Trazado_838641" data-name="Trazado 838641" d="M349.737,268.837a.849.849,0,0,1-.013-.18c0-.146-.01-.329-.016-.559q-.015-.8-.04-2.218v-.069h.07l2.28-.022,1.361-.011a4.122,4.122,0,0,0,.709-.032,1.225,1.225,0,0,0,.942-.982c.034-.257.052-.547.08-.827q.075-.852.158-1.765c.11-1.218.227-2.514.351-3.88.508-5.475,1.12-12.063,1.783-19.2l.016-.176.174.015,2.166.188.756.065.177.016-.017.177-2.464,25.5a4.435,4.435,0,0,1-2.4,3.584,4.3,4.3,0,0,1-1.758.457c-.561.015-1.069-.006-1.526-.008l-2.088-.038-.532-.015a.874.874,0,0,1-.172-.013,1.455,1.455,0,0,1,.2-.013l.55-.015,2.077-.038a6.5,6.5,0,0,0,3.163-.492,4.224,4.224,0,0,0,2.24-3.439c.6-6.53,1.435-15.522,2.358-25.5l.16.192-.755-.065-2.166-.189.19-.162c-.687,7.141-1.321,13.73-1.848,19.205-.135,1.365-.262,2.661-.382,3.878q-.092.912-.176,1.763c-.031.287-.048.556-.09.842a1.448,1.448,0,0,1-1.125,1.147,4.135,4.135,0,0,1-.752.027l-1.361-.01-2.28-.022.069-.069q-.025,1.395-.039,2.178c-.007.236-.012.425-.017.575a1.371,1.371,0,0,1-.013.2" fill="#263238"/>
            <path id="Trazado_838642" data-name="Trazado 838642" d="M284.887,269.693l-9.912,73.981,3.879,0,14.72-71.223Z" fill="#455a64"/>
            <path id="Trazado_838643" data-name="Trazado 838643" d="M284.887,269.693s.181.047.551.158l1.656.5,6.505,2.01.074.023-.016.077c-2.626,12.8-8.037,39.172-14.278,69.59-.118.566-.234,1.132-.342,1.654l-.032.15h-.151l-3.879,0h-.214l.029-.214c2.808-20.715,5.318-39.227,7.128-52.577.913-6.636,1.649-11.988,2.159-15.7.256-1.828.455-3.25.592-4.23.068-.47.12-.831.158-1.091.036-.243.06-.36.06-.36s-.01.138-.041.392-.078.637-.138,1.12c-.127.992-.312,2.432-.549,4.283-.486,3.724-1.187,9.1-2.056,15.761-1.763,13.317-4.208,31.784-6.943,52.45l-.185-.213,3.878,0-.183.15c.108-.522.225-1.087.342-1.654,6.328-30.4,11.815-56.756,14.478-69.548l.058.1-6.423-2.091-1.665-.549c-.375-.125-.573-.2-.573-.2" fill="#263238"/>
            <path id="Trazado_838644" data-name="Trazado 838644" d="M284.454,272.449h65.432a4.451,4.451,0,0,0,0-8.9H284.454a4.451,4.451,0,0,0,0,8.9" fill="#455a64"/>
            <path id="Trazado_838645" data-name="Trazado 838645" d="M363.882,241.566l8.928-70.634a4.414,4.414,0,1,0-8.756-1.126l-8.928,70.634a4.414,4.414,0,1,0,8.756,1.126" fill="#455a64"/>
            <path id="Trazado_838646" data-name="Trazado 838646" d="M349.124,269.693l10.188,74.578-4.273.138-14.6-71.96Z" fill="#455a64"/>
            <path id="Trazado_838647" data-name="Trazado 838647" d="M283.91,272.449c0-.1,14.975-.178,33.444-.178s33.447.08,33.447.178-14.972.178-33.447.178-33.444-.08-33.444-.178" fill="#263238"/>
            <path id="Trazado_838648" data-name="Trazado 838648" d="M354.965,217.215,353.659,212s-1.369-26.284-1.785-43.088-11.4-24.994-11.4-24.994l-2.047-4.829-21.894,6.944.168,6.882-9.657,15.651c-2.752,6.735-3.768,10.582-1.331,18.548l5.8,24.076-6.033,8.565,50.943,15.665c.376-7.911.473-10.526-1.452-18.208" fill="#e6ff48"/>
            <path id="Trazado_838649" data-name="Trazado 838649" d="M311.263,211.146c.029-.093,5.7,1.6,12.656,3.785s12.58,4.03,12.551,4.122-5.7-1.6-12.657-3.785-12.579-4.029-12.55-4.122" fill="#263238"/>
            <path id="Trazado_838650" data-name="Trazado 838650" d="M318.224,211.121c-.009-.1,3.459-.49,7.743-.878s7.768-.624,7.776-.527-3.457.49-7.744.878-7.766.624-7.775.527" fill="#263238"/>
            <path id="Trazado_838651" data-name="Trazado 838651" d="M257.912,214.125l3.394-5.131,5.449-2.733.2-.149a7.308,7.308,0,0,1,6.18-1.148c2.218.589,5.179,1.325,7.747,1.764l5.864-1.6v11.443L257.174,214.7Z" fill="#ae7461"/>
            <path id="Trazado_838652" data-name="Trazado 838652" d="M258.118,213.814a7.74,7.74,0,0,1,1.249-1.141c.8-.669,1.922-1.572,3.175-2.552l1.173-.91.035-.027.04-.008c1.213-.228,2.266-.411,3.019-.527a4.782,4.782,0,0,1,1.212-.124,4.724,4.724,0,0,1-1.169.345c-.74.177-1.785.406-2.993.655l.075-.035-1.166.92c-1.252.98-2.4,1.851-3.241,2.468a7.685,7.685,0,0,1-1.409.936" fill="#6f4439"/>
            <path id="Trazado_838653" data-name="Trazado 838653" d="M260.423,214.813a33.675,33.675,0,0,1,4.254-2.568l1.037-.568.037-.02.039,0a23.2,23.2,0,0,1,3.786-.064,22.952,22.952,0,0,1-3.764.421l.075-.022-1.032.578a33.677,33.677,0,0,1-4.432,2.246" fill="#6f4439"/>
            <path id="Trazado_838654" data-name="Trazado 838654" d="M283.285,203.8l39.515-8.25,1.019-34.305s1.382-13.976,8.387-15.274l16.863,20.993c-.942,10.582-.084,30.6-4.946,38.322s-9.591,13.908-21.564,13.359-38.363-.8-38.363-.8Z" fill="#e6ff48"/>
            <path id="Trazado_838655" data-name="Trazado 838655" d="M322.722,195.679c-.094.075.854,1.311,1.65,3.035s1.149,3.239,1.267,3.215a10.022,10.022,0,0,0-2.917-6.25" fill="#263238"/>
            <g id="Grupo_1072073" data-name="Grupo 1072073" opacity="0.3">
              <g id="Grupo_1072072" data-name="Grupo 1072072">
                <g id="Grupo_1072071" data-name="Grupo 1072071" clip-path="url(#clip-path-7)">
                  <path id="Trazado_838656" data-name="Trazado 838656" d="M324.091,159.774C320.145,171.9,321,190.6,313.475,197.493l9.325-1.947a47.224,47.224,0,0,1-.078-6.588c.756-9.588.848-19.338,1.369-29.184"/>
                </g>
              </g>
            </g>
            <path id="Trazado_838657" data-name="Trazado 838657" d="M324.968,155.447a21.913,21.913,0,0,0-.693,2.752,33.588,33.588,0,0,0-.481,3.395c-.129,1.35-.149,2.908-.215,4.654-.224,7-.546,17.047-.939,29.293l.128-.152L283.245,203.6l-.166.035.011.17c.29,4.495.6,9.224.907,14.044l.012.184.186,0,4.8.055c6.868.085,13.573.19,20.046.33q4.855.1,9.529.254a51.076,51.076,0,0,0,9.156-.1,19.9,19.9,0,0,0,4.3-1.107,18.313,18.313,0,0,0,3.793-2.072,25.776,25.776,0,0,0,5.7-5.922q1.155-1.623,2.183-3.243l.512-.805c.161-.275.3-.562.454-.84l.444-.835c.113-.291.227-.581.339-.869a33.288,33.288,0,0,0,1.766-6.857,107.37,107.37,0,0,0,1.156-12.1c.178-3.573.258-6.652.346-9.166s.17-4.467.238-5.79c.041-.651.071-1.151.093-1.5s.019-.513.019-.513-.027.172-.059.51-.076.851-.133,1.5c-.1,1.322-.21,3.274-.314,5.789s-.214,5.592-.413,9.16a108.914,108.914,0,0,1-1.212,12.064,33.089,33.089,0,0,1-1.773,6.789q-.168.425-.337.855l-.436.814c-.149.272-.287.55-.446.82l-.514.8q-1.028,1.612-2.181,3.221a25.473,25.473,0,0,1-5.637,5.83,17.959,17.959,0,0,1-3.719,2.024,19.59,19.59,0,0,1-4.22,1.077,50.838,50.838,0,0,1-9.089.078q-4.673-.159-9.533-.264c-6.476-.146-13.181-.253-20.05-.338l-4.806-.054.2.187c-.314-4.82-.622-9.549-.914-14.043l-.156.2,39.507-8.284.124-.027,0-.126c.334-12.248.609-22.3.8-29.3.053-1.748.058-3.3.173-4.647s.271-2.478.435-3.389.323-1.6.435-2.066c.054-.223.1-.4.128-.525a1.011,1.011,0,0,0,.036-.179" fill="#263238"/>
          </g>
        </g>
        <g id="Grupo_1072086" data-name="Grupo 1072086">
          <g id="Grupo_1072085" data-name="Grupo 1072085" clip-path="url(#clip-path-4)">
            <path id="Trazado_838658" data-name="Trazado 838658" d="M66,21.86c-2.34-1.427-2.96-4.825-1.75-7.284A8.939,8.939,0,0,1,70.792,10.1,12.614,12.614,0,0,1,81.724,13.51c1.521,1.511,2.767,3.495,4.8,4.163,1.791.588,3.75-.007,5.623.2a8.478,8.478,0,0,1,6.014,4.174,18.3,18.3,0,0,1,2.241,7.182c.313,2.3.539,4.821,2.166,6.473,1.587,1.61,4.054,1.913,6.012,3.044a8.152,8.152,0,0,1,2.62,11.09c-.746,1.132-1.828,2.178-1.893,3.533-.059,1.237.759,2.323,1.154,3.5a5.5,5.5,0,0,1-4.584,6.917c-1.606.121-3.338-.474-4.765.27s-1.92,2.474-2.811,3.8a6.882,6.882,0,0,1-8.35,2.317c-1.192-.558-2.325-1.495-3.637-1.383S84,70.039,82.712,70.311c-1.682.357-3.308-.858-4.337-2.236s-1.757-3.01-3.063-4.13c-1.709-1.466-4.079-1.793-6.221-2.488A17.42,17.42,0,0,1,58.817,37.234" fill="#263238"/>
            <path id="Trazado_838659" data-name="Trazado 838659" d="M91.024,51.676a4.721,4.721,0,0,1,1.856-1.269l-.144-.006a2.777,2.777,0,0,1,.4-.076,1.873,1.873,0,0,1,1.471.155h-.014A3.47,3.47,0,0,1,96.523,52.1a4.11,4.11,0,0,1-.408,4.245,3.142,3.142,0,0,1-5.785-.976,3.9,3.9,0,0,1,.694-3.692" fill="#455a64"/>
            <path id="Trazado_838660" data-name="Trazado 838660" d="M60.934,76.832,57.665,31.74A3.832,3.832,0,0,1,60.91,27.7l20.077-6.077c6.473-.99,11.171,6.82,11.885,13.33.794,7.233,1.477,16.1.869,21.547C92.517,67.463,83.586,69.28,83.586,69.28c0-.037.134,11.139.271,15.1L86.564,96.6Z" fill="#ffc09d"/>
            <path id="Trazado_838661" data-name="Trazado 838661" d="M89.8,44.829a1.4,1.4,0,0,1-1.281,1.47,1.336,1.336,0,0,1-1.5-1.191A1.4,1.4,0,0,1,88.3,43.636a1.338,1.338,0,0,1,1.5,1.193" fill="#263238"/>
            <path id="Trazado_838662" data-name="Trazado 838662" d="M91.161,39.658c-.164.19-1.258-.543-2.76-.47-1.5.052-2.568.876-2.739.7-.084-.078.077-.415.541-.786a3.834,3.834,0,0,1,2.182-.786,3.682,3.682,0,0,1,2.208.6c.478.333.65.655.568.74" fill="#263238"/>
            <path id="Trazado_838663" data-name="Trazado 838663" d="M77.46,45.149a1.4,1.4,0,0,1-1.28,1.47,1.335,1.335,0,0,1-1.5-1.191,1.4,1.4,0,0,1,1.279-1.472,1.337,1.337,0,0,1,1.5,1.193" fill="#263238"/>
            <path id="Trazado_838664" data-name="Trazado 838664" d="M76.411,40.623c-.165.19-1.26-.543-2.761-.47-1.5.052-2.567.876-2.739.7-.083-.078.076-.414.542-.786a3.835,3.835,0,0,1,2.182-.786,3.681,3.681,0,0,1,2.207.6c.477.333.65.655.569.74" fill="#263238"/>
            <path id="Trazado_838665" data-name="Trazado 838665" d="M82.378,51.509a9.926,9.926,0,0,1,2.419-.553c.382-.058.741-.151.794-.415a1.955,1.955,0,0,0-.309-1.125q-.606-1.368-1.269-2.868c-1.768-4.085-3.067-7.451-2.9-7.521s1.732,3.184,3.5,7.27q.639,1.51,1.223,2.887a2.225,2.225,0,0,1,.269,1.5.963.963,0,0,1-.6.59,2.578,2.578,0,0,1-.647.121,9.821,9.821,0,0,1-2.473.118" fill="#263238"/>
            <path id="Trazado_838666" data-name="Trazado 838666" d="M83.586,69.28a26.152,26.152,0,0,1-14.1-3.257s3.3,8.042,14.143,6.519Z" fill="#ff9b6c"/>
            <path id="Trazado_838667" data-name="Trazado 838667" d="M78.483,53.608s4.589,1.369,4.5,1.758a8.876,8.876,0,0,1-.695,1.446c-.636.612-.983,1.266-1.822,1.511a2.6,2.6,0,0,1-3.194-3.538c.395-.7.424-1.111,1.206-1.177" fill="#ff9b6c"/>
            <path id="Trazado_838668" data-name="Trazado 838668" d="M76.787,34.409c-.129.415-1.638.291-3.39.585-1.758.259-3.155.841-3.406.485-.112-.17.117-.566.674-.988a5.978,5.978,0,0,1,5.177-.815c.659.23,1,.536.945.733" fill="#263238"/>
            <path id="Trazado_838669" data-name="Trazado 838669" d="M90.393,34.514c-.248.353-1.3.047-2.545.088-1.246,0-2.287.336-2.547-.009-.113-.169.037-.518.483-.863a3.687,3.687,0,0,1,4.1-.063c.456.33.617.675.509.847" fill="#263238"/>
            <path id="Trazado_838670" data-name="Trazado 838670" d="M100.172,32.533a7.477,7.477,0,0,0-2.946-4.069,27.8,27.8,0,0,1-2.45-1.367c-1.6-1.242-2-3.447-3-5.2a8.223,8.223,0,0,0-6.34-4.044c-2.162-.182-4.373.506-6.486.013-1.562-.364-2.938-1.349-4.518-1.62-3.078-.528-5.89,1.725-8.075,3.956.031,2.2,1.807,3.633,3.516,5.012a7.615,7.615,0,0,0,6.195,1.516c1.671-.336,3.492-1.216,4.958-.349,1.543.912,1.647,3.21,3.021,4.361,1.964,1.643,5.01.013,7.478.7,1.906.528,3.123,2.319,4.409,3.82s3.2,2.918,5.085,2.321a22.26,22.26,0,0,0-.843-5.044" fill="#263238"/>
            <path id="Trazado_838671" data-name="Trazado 838671" d="M76.973,23.666C75.591,23.3,72.761,22.457,72,21.278a8.4,8.4,0,0,0-7.387-4.07A6.937,6.937,0,0,0,58.468,22.8a9.978,9.978,0,0,0-8.475,5.673,10.525,10.525,0,0,0-.521,1.289,7.591,7.591,0,0,0-.393,6.381c.5,1.233,1.333,2.6.715,3.778-.629,1.2-2.272,1.266-3.543,1.73a5.04,5.04,0,0,0-3.074,5.685,6.126,6.126,0,0,1,.445,2.472,5.4,5.4,0,0,1-1.443,2.169,6.272,6.272,0,0,0,3.86,10.142,8.088,8.088,0,0,1,2.9.606c.981.58,1.427,1.74,2.129,2.639A5.412,5.412,0,0,0,56.961,67.1a4.949,4.949,0,0,0,1.167-.614A3.882,3.882,0,0,0,61.6,67.946l-.816-22.953a1.9,1.9,0,0,0,1.411,1.066c3.7.767,4.1-6.836,3.243-8.88a21.477,21.477,0,0,0,3.629-3.954,15.461,15.461,0,0,0,1.562-7.481c1.329.054,6.954-1.916,6.347-2.078" fill="#263238"/>
            <path id="Trazado_838672" data-name="Trazado 838672" d="M61.83,46.842c-.159-2.332-3.023-2.779-5.025-1.574-1.1.662-1.925,1.968-1.779,4.444.391,6.6,6.939,4.848,6.939,4.658,0-.118.051-4.8-.135-7.528" fill="#ffc09d"/>
            <path id="Trazado_838673" data-name="Trazado 838673" d="M59.8,51.988c-.03-.019-.11.087-.3.188a1.155,1.155,0,0,1-.859.069,2.851,2.851,0,0,1-1.468-2.476A3.8,3.8,0,0,1,57.4,48.1a1.332,1.332,0,0,1,.812-.935.588.588,0,0,1,.7.275c.1.18.065.314.1.323.019.016.135-.119.066-.388a.735.735,0,0,0-.285-.4.871.871,0,0,0-.646-.13,1.619,1.619,0,0,0-1.14,1.1,3.9,3.9,0,0,0-.29,1.864,2.989,2.989,0,0,0,1.846,2.751,1.233,1.233,0,0,0,1.042-.237c.195-.175.221-.324.2-.335" fill="#ff9b6c"/>
            <path id="Trazado_838674" data-name="Trazado 838674" d="M67.844,22.045a3.941,3.941,0,0,0-1.3,1.127,6.1,6.1,0,0,0-.4,4.578l.038.166-.162.044a6.389,6.389,0,0,0-4.189,3.826,4.967,4.967,0,0,0-.313,1.618,9.661,9.661,0,0,0,.238,1.742,13.072,13.072,0,0,1,.285,1.876,3.108,3.108,0,0,1-.488,1.959A8.019,8.019,0,0,1,58.317,41.5a11.118,11.118,0,0,0-3.032,2.065,8.26,8.26,0,0,0-2.368,5.58,8.617,8.617,0,0,0,.944,4.068c.455.894.832,1.318.795,1.346-.013.01-.111-.09-.288-.292A7,7,0,0,1,53.7,53.3a8.378,8.378,0,0,1-1.115-4.156,8.5,8.5,0,0,1,2.39-5.877A11.357,11.357,0,0,1,58.1,41.1a7.7,7.7,0,0,0,3.053-2.366c.714-1.016.363-2.32.149-3.5a9.974,9.974,0,0,1-.236-1.83,5.347,5.347,0,0,1,.355-1.77,6.7,6.7,0,0,1,4.508-4.008l-.124.209a6.136,6.136,0,0,1,.581-4.772,2.787,2.787,0,0,1,1.019-.862,1.6,1.6,0,0,1,.437-.156" fill="#455a64"/>
            <path id="Trazado_838675" data-name="Trazado 838675" d="M57.376,54.506a4.721,4.721,0,0,1,1.856-1.269l-.144-.006a2.777,2.777,0,0,1,.4-.076,1.869,1.869,0,0,1,1.471.155h-.014a3.47,3.47,0,0,1,1.929,1.619,4.111,4.111,0,0,1-.408,4.245,3.143,3.143,0,0,1-5.785-.976,3.9,3.9,0,0,1,.694-3.692" fill="#455a64"/>
            <path id="Trazado_838676" data-name="Trazado 838676" d="M61.879,297.17l-20.3,18.563L64.55,341.1c2.289-2.343-4.727-19.871-4.727-19.871L72.5,308.968Z" fill="#263238"/>
            <path id="Trazado_838677" data-name="Trazado 838677" d="M41.584,315.733l2.12-1.961,21.153,25.236s.521,1.578-.394,2.165Z" fill="#455a64"/>
            <path id="Trazado_838678" data-name="Trazado 838678" d="M60.324,321.524c-.128.108-.744-.46-1.695-.709-.943-.274-1.764-.1-1.818-.261-.08-.136.828-.622,1.973-.3s1.678,1.194,1.54,1.27" fill="#455a64"/>
            <path id="Trazado_838679" data-name="Trazado 838679" d="M61.632,325.181c-.094.137-.791-.209-1.695-.155-.907.027-1.569.434-1.676.306-.125-.1.465-.835,1.592-.88s1.9.62,1.779.729" fill="#455a64"/>
            <path id="Trazado_838680" data-name="Trazado 838680" d="M59.816,329.575c-.157-.109.209-.783,1.3-1.117.965-.3,1.761.038,1.7.184-.038.162-.743.116-1.533.371-.8.236-1.349.674-1.473.562" fill="#455a64"/>
            <path id="Trazado_838681" data-name="Trazado 838681" d="M63.111,318.594c-.16.05-.5-.673-1.185-1.33s-1.4-1-1.348-1.163c.024-.153.964-.036,1.756.749s.929,1.717.777,1.744" fill="#455a64"/>
            <path id="Trazado_838682" data-name="Trazado 838682" d="M56.123,313.455l.29,30.985,38.552-.164c-.241-3.681-20.217-10.991-20.217-10.991l.628-19.86Z" fill="#263238"/>
            <path id="Trazado_838683" data-name="Trazado 838683" d="M56.411,344.505l-.046-3.318,37.078,1.257s1.714.751,1.517,1.959Z" fill="#455a64"/>
            <path id="Trazado_838684" data-name="Trazado 838684" d="M75.372,333.086c-.006.188-.946.278-1.87.887-.94.585-1.414,1.4-1.587,1.329-.174-.036.1-1.163,1.233-1.881s2.264-.508,2.224-.335" fill="#455a64"/>
            <path id="Trazado_838685" data-name="Trazado 838685" d="M79.423,334.741c.044.182-.77.506-1.406,1.3-.66.78-.817,1.642-1,1.634-.177.031-.312-1.071.5-2.05s1.908-1.068,1.913-.889" fill="#455a64"/>
            <path id="Trazado_838686" data-name="Trazado 838686" d="M81.74,339.571c-.171.041-.437-.9.042-1.932s1.358-1.447,1.438-1.29c.107.154-.462.71-.842,1.564-.4.844-.451,1.639-.638,1.658" fill="#455a64"/>
            <path id="Trazado_838687" data-name="Trazado 838687" d="M75.013,328.544c-.078.172-.943-.084-2.007-.007-1.065.055-1.891.416-1.99.255-.109-.136.7-.836,1.95-.909s2.139.513,2.047.661" fill="#263238"/>
            <path id="Trazado_838688" data-name="Trazado 838688" d="M58.7,158.175H52.776s-13.182,25.589-13.131,42.138c.023,7.613,10.177,66.031,10.177,66.031s2.957,42.538,4.617,64.146l21.233-.639,4.605-62.171L81.651,216.9l9.015-58.282Z" fill="#0a5e6b"/>
            <path id="Trazado_838689" data-name="Trazado 838689" d="M105.729,172.1s10.413,62.325,8.183,79.237c-1.448,10.977-39.1,65.824-39.1,65.824L57.93,297.2,84.617,245.44l-9.6-43.835,11.422-43.043,17.76.212Z" fill="#0a5e6b"/>
            <path id="Trazado_838690" data-name="Trazado 838690" d="M47.913,94.117l7.94,61.837,3.887,3.056c8.313,3.9,26.749,3.562,38.089.258,4.121-37.9,2.77-64.85-5.305-78.341l-8.6-3.823C77.08,84.612,68.28,81.767,60.6,74.347Z" fill="#fff"/>
            <path id="Trazado_838691" data-name="Trazado 838691" d="M78.395,131.336a24.758,24.758,0,0,1,1.529-2.36A37.74,37.74,0,0,0,85.139,116.6a24.952,24.952,0,0,1,.623-2.742,10.9,10.9,0,0,1-.262,2.815,30.587,30.587,0,0,1-5.272,12.506,10.888,10.888,0,0,1-1.833,2.153" fill="#263238"/>
            <path id="Trazado_838692" data-name="Trazado 838692" d="M59.986,69.845l-3.468,5.471L40.21,81.5l2.6,38.275,5.714,15.2-4.082,16.293a164.816,164.816,0,0,0-8.195,26.97l-2.9,17.51s23.609,5.529,28.817,2.479,7.671-33.054,9.5-39.915,4.384-27.2,2.825-37.986S70.3,93.656,69.032,88.179s-9.046-18.334-9.046-18.334" fill="#1fd27a"/>
            <path id="Trazado_838693" data-name="Trazado 838693" d="M83.827,71.834l2.6,3.557,10.753,4.8s6.189,20.635,6.189,29.873c0,16.046-.292,40.739-.251,43.014s10.013,33.582,9.268,35.492-10.648,3.222-10.648,3.222-5.313-26.673-5.477-35.774-.956-31.469-3.1-42.432-9.224-35.873-9.224-35.873Z" fill="#1fd27a"/>
            <path id="Trazado_838694" data-name="Trazado 838694" d="M96.562,161.1a.734.734,0,0,1-.023-.227c0-.178-.009-.4-.014-.664,0-.624,0-1.477-.009-2.554.012-2.261.029-5.459.05-9.393.048-7.93.18-18.887.165-30.983-.013-1.512-.018-3.007-.057-4.476-.019-1.456-.211-2.9-.348-4.319-.287-2.84-.569-5.576-.888-8.176s-.671-5.066-1.114-7.348A30.733,30.733,0,0,0,92.4,86.8a79.6,79.6,0,0,0-4.236-8.408q-.821-1.4-1.3-2.219l-.338-.576a.792.792,0,0,1-.1-.205.8.8,0,0,1,.145.178c.1.149.228.33.381.552.326.49.8,1.219,1.377,2.176a71.128,71.128,0,0,1,4.393,8.371,30.612,30.612,0,0,1,2.009,6.209c.464,2.3.832,4.767,1.163,7.371s.625,5.344.919,8.183c.139,1.416.336,2.86.357,4.353.042,1.477.048,2.973.06,4.487.015,12.105-.172,23.06-.31,30.99-.088,3.934-.159,7.131-.209,9.391-.036,1.077-.064,1.93-.085,2.553-.014.268-.026.486-.035.664a.852.852,0,0,1-.028.226" fill="#263238"/>
            <path id="Trazado_838695" data-name="Trazado 838695" d="M73.919,142.881a3.367,3.367,0,0,1-.122-.709c-.061-.467-.134-1.157-.209-2.048-.147-1.781-.3-4.366-.307-7.564,0-1.6.033-3.352.123-5.229a23.011,23.011,0,0,0-.836-5.857,97.251,97.251,0,0,0-4.717-12.888c-1.956-4.477-3.976-8.678-5.845-12.485a51.293,51.293,0,0,1-2.5-5.5,47.11,47.11,0,0,1-1.363-5.068c-.681-3.13-1.067-5.69-1.321-7.459-.123-.885-.208-1.574-.257-2.042a3.708,3.708,0,0,1-.047-.717,4.155,4.155,0,0,1,.147.7c.088.509.2,1.183.349,2.026.312,1.758.751,4.306,1.474,7.414a49.17,49.17,0,0,0,1.41,5.013,52.736,52.736,0,0,0,2.521,5.434c1.893,3.8,3.928,8,5.891,12.49a93.825,93.825,0,0,1,4.7,12.968,23.089,23.089,0,0,1,.8,5.986c-.108,1.872-.165,3.616-.185,5.21-.041,3.188.063,5.769.15,7.55.047.855.086,1.537.114,2.052a4.369,4.369,0,0,1,.023.718" fill="#263238"/>
            <path id="Trazado_838696" data-name="Trazado 838696" d="M49.637,267.984a1.785,1.785,0,0,1,.041.292c.021.212.049.5.085.865.069.784.167,1.912.295,3.372.244,2.972.6,7.291,1.046,12.762.867,10.993,2.1,26.611,3.567,45.2l-.239-.214,21.232-.658-.243.233c.67-9.494,1.39-19.706,2.134-30.252.559-7.869,1.105-15.552,1.633-22.973q.4-5.565.78-10.923c.177-3.573.228-7.077.345-10.492.413-13.661.784-25.964,1.1-36.3l.785-24.473c.1-2.874.184-5.112.239-6.653.033-.747.058-1.321.076-1.73.019-.39.043-.589.043-.589s.012.2.01.59c-.006.41-.014.985-.024,1.732-.033,1.541-.081,3.781-.142,6.656-.146,5.8-.358,14.159-.619,24.481-.28,10.342-.614,22.648-.984,36.312-.111,3.416-.157,6.921-.328,10.495q-.376,5.355-.768,10.926c-.524,7.421-1.067,15.106-1.622,22.977-.751,10.547-1.477,20.76-2.153,30.256l-.016.226-.227.007-21.233.62-.222.006-.016-.22c-1.39-18.593-2.557-34.216-3.379-45.212-.393-5.475-.7-9.8-.916-12.772-.1-1.462-.172-2.592-.224-3.377-.021-.37-.036-.656-.048-.868a1.774,1.774,0,0,1,0-.295" fill="#455a64"/>
            <g id="Grupo_1072078" data-name="Grupo 1072078" opacity="0.3">
              <g id="Grupo_1072077" data-name="Grupo 1072077">
                <g id="Grupo_1072076" data-name="Grupo 1072076" clip-path="url(#clip-path-9)">
                  <path id="Trazado_838697" data-name="Trazado 838697" d="M44.118,160.063,57.9,165.926l1.111-1.761s9.421,5.865,11.916,5.513l1.37-3.517-14.092-10.2-13.042-.821Z"/>
                </g>
              </g>
            </g>
            <path id="Trazado_838698" data-name="Trazado 838698" d="M85.25,161.213,68.448,144a1.029,1.029,0,0,0-1.507.029,1.084,1.084,0,0,0,.027,1.479l16.8,17.216c.419.43,2.241,1.8,2.644,1.356.381-.421-.768-2.458-1.164-2.864" fill="#455a64"/>
            <path id="Trazado_838699" data-name="Trazado 838699" d="M61.445,148.78c.1.074,8.548.318,10.517.76s6.638,1.668,8.131,2.771,4.5,5.106,3.746,5.69a1.671,1.671,0,0,1-2.172,0c-.412-.4-4.072-3.311-4.072-3.311s-2.2-.767-2.265-.178,5.455,3.71,4.573,5.108-3.258,1.03-3.258,1.03.678,2.239-.068,3.363a5.7,5.7,0,0,1-2.614,1.713,2.17,2.17,0,0,1-1.207,2.673c-1.315.554-3.3-.833-3.3-.833L64.99,165.2a18.8,18.8,0,0,1-6.662-5.938l-.423-.611Z" fill="#ffc09d"/>
            <path id="Trazado_838700" data-name="Trazado 838700" d="M43.118,133.579l4.971-21.388L41.126,81.134a12.745,12.745,0,0,0-8.132,9.179c-2.5,10.957-12.119,44.316-11.793,51.349s36.475,21.09,36.475,21.09l6.753-16.041Z" fill="#1fd27a"/>
            <path id="Trazado_838701" data-name="Trazado 838701" d="M116.452,132.232l-1.485-.994L108.453,92.58c-2.239-8.472-8.558-10.653-11.274-12.391l2.915,17.145,1.375,45.9a106.475,106.475,0,0,0,11.172,4.9c5.131,1.8,15.387,3.741,15.387,3.741l3.283-15.282Z" fill="#1fd27a"/>
            <path id="Trazado_838702" data-name="Trazado 838702" d="M49.274,108.669a2.257,2.257,0,0,1-.078.477c-.076.349-.175.8-.3,1.365l-1.2,5.132-4.349,17.993-.106-.259,15.26,9.376,6.061,3.739.188.116-.086.2c-2.487,5.87-4.791,11.3-6.791,16.025l-.086.2-.2-.088-12.653-5.6-3.508-1.59-.915-.432a1.4,1.4,0,0,1-.305-.169,1.424,1.424,0,0,1,.331.108l.941.375,3.554,1.482,12.726,5.434-.284.114,6.715-16.058.1.319L58.23,143.2l-15.236-9.415-.148-.092.042-.168,4.533-17.948c.56-2.152,1.008-3.87,1.329-5.1.153-.558.276-1,.371-1.348a2.239,2.239,0,0,1,.153-.458" fill="#263238"/>
            <path id="Trazado_838703" data-name="Trazado 838703" d="M48.523,98.126c-.082,0-.1-1.1-.274-2.866a19,19,0,0,0-1.765-6.594A10.554,10.554,0,0,0,41.795,83.9a13.707,13.707,0,0,0-2.712-.827,1.9,1.9,0,0,1,.783-.03,6.64,6.64,0,0,1,2.079.521,10.261,10.261,0,0,1,5,4.863,17.118,17.118,0,0,1,1.667,6.8,10.853,10.853,0,0,1-.093,2.895" fill="#263238"/>
            <path id="Trazado_838704" data-name="Trazado 838704" d="M36.17,136.608a5.672,5.672,0,0,1,3.043-2.626,5.526,5.526,0,0,1,3.995-.429,17.06,17.06,0,0,0-3.787.906,18.816,18.816,0,0,0-3.251,2.149" fill="#263238"/>
            <path id="Trazado_838705" data-name="Trazado 838705" d="M101.441,89.568a2.921,2.921,0,0,1,.212.6c.131.454.3,1.035.509,1.753.234.759.438,1.708.681,2.808.269,1.1.474,2.363.706,3.764a77.531,77.531,0,0,1,.858,9.926c.1,3.75.005,7.872-.156,12.189-.359,8.637-.679,16.447-.767,22.107-.061,2.829-.08,5.119-.1,6.7-.016.746-.029,1.351-.039,1.823a2.981,2.981,0,0,1-.049.636,2.914,2.914,0,0,1-.056-.635c-.015-.472-.035-1.076-.059-1.823-.046-1.583-.083-3.875-.069-6.708-.006-5.664.256-13.49.615-22.121.161-4.314.269-8.424.2-12.158a82.925,82.925,0,0,0-.743-9.885c-.207-1.4-.385-2.662-.626-3.758-.216-1.1-.389-2.054-.593-2.818-.169-.727-.307-1.315-.414-1.774a2.961,2.961,0,0,1-.11-.629" fill="#263238"/>
            <path id="Trazado_838706" data-name="Trazado 838706" d="M80.865,58.022a2.291,2.291,0,0,1-1.931.422,2.712,2.712,0,0,1-2.323-2.461,3.7,3.7,0,0,1,.244-1.409,2.232,2.232,0,0,1,.849-1.218,1.249,1.249,0,0,1,.758-.171,3.972,3.972,0,0,1,.637.119,11.179,11.179,0,0,1,2.026.714,7.275,7.275,0,0,1,1.722.9,7.318,7.318,0,0,1-1.875-.568,13.992,13.992,0,0,0-1.982-.581,1.338,1.338,0,0,0-1.022.02,1.811,1.811,0,0,0-.621.953,3.358,3.358,0,0,0-.227,1.2A2.274,2.274,0,0,0,77.461,57,2.4,2.4,0,0,0,79,58.082a5.274,5.274,0,0,0,1.863-.06" fill="#263238"/>
            <rect id="Rectángulo_377687" data-name="Rectángulo 377687" width="9.542" height="4.252" transform="translate(98.126 106.972)" fill="#fff"/>
            <path id="Trazado_838707" data-name="Trazado 838707" d="M107.668,111.225a9.035,9.035,0,0,1-.087-1.2c-.034-.741-.077-1.783-.1-3.053l.188.187c-2.464.045-5.832.073-9.542.073l.26-.26h0v1.107q0,.547,0,1.082c0,.709-.006,1.4-.01,2.061l-.247-.248c2.722.017,5.07.07,6.769.118s2.732.09,2.773.13a22.209,22.209,0,0,1-2.606.13c-1.684.048-4.107.1-6.936.118h-.247v-.249c0-.663-.006-1.352-.009-2.061l0-1.082v-1.107h0l.261-.261c3.71,0,7.078.028,9.542.073l.191,0,0,.185c-.024,1.356-.068,2.44-.1,3.167a5.612,5.612,0,0,1-.087,1.084" fill="#263238"/>
            <g id="Grupo_1072081" data-name="Grupo 1072081" opacity="0.3">
              <g id="Grupo_1072080" data-name="Grupo 1072080">
                <g id="Grupo_1072079" data-name="Grupo 1072079" clip-path="url(#clip-path-10)">
                  <path id="Trazado_838708" data-name="Trazado 838708" d="M57.475,82.165c.105.568.06,10.261,2.271,14.436S70.013,119.732,70.8,124.154,73.348,136.1,73.348,136.1a55.116,55.116,0,0,0,.265-10.058,38.685,38.685,0,0,0-1.516-6.919c-1.511-5.674-8.711-21.307-10.455-24.978a114.645,114.645,0,0,1-4.167-11.978"/>
                </g>
              </g>
            </g>
            <g id="Grupo_1072084" data-name="Grupo 1072084" opacity="0.3">
              <g id="Grupo_1072083" data-name="Grupo 1072083">
                <g id="Grupo_1072082" data-name="Grupo 1072082" clip-path="url(#clip-path-11)">
                  <rect id="Rectángulo_377689" data-name="Rectángulo 377689" width="5.876" height="1.882" transform="translate(98.503 111.225)"/>
                </g>
              </g>
            </g>
            <path id="Trazado_838709" data-name="Trazado 838709" d="M124.827,121.421s-20.685,23.451-24.846,27.768a48.542,48.542,0,0,1-6.232,4.873l6.525.541Z" fill="#e0e0e0"/>
            <path id="Trazado_838710" data-name="Trazado 838710" d="M126.936,118.364l34.827-3.073,1.129,4.305-32.276,36.759-31.366,1.838-2.873-2.575Z" fill="#e0e0e0"/>
            <path id="Trazado_838711" data-name="Trazado 838711" d="M162.992,118.895a3.833,3.833,0,0,1-.66.115l-1.911.248-7.1.841-24.025,2.689.152-.082-3.993,4.785-18.26,21.749c-2.333,2.743-4.23,4.975-5.574,6.556q-.967,1.116-1.534,1.767l-.408.452c-.094.1-.145.149-.151.144a.715.715,0,0,1,.115-.174l.372-.482,1.466-1.824,5.46-6.652c4.67-5.616,11.076-13.322,18.155-21.837l4-4.781.061-.072.092-.009,24.042-2.533,7.118-.7,1.92-.168a4,4,0,0,1,.669-.03" fill="#263238"/>
            <path id="Trazado_838712" data-name="Trazado 838712" d="M161.9,116.175a4.168,4.168,0,0,1-.67.1l-1.939.213-7.208.711-24.4,2.249.159-.086-4.173,5.156c-7.16,8.779-13.843,16.559-18.752,22.126-2.454,2.783-4.465,5.014-5.863,6.547l-1.623,1.754L97,155.4c-.1.1-.152.148-.159.142a.786.786,0,0,1,.124-.174l.4-.479,1.557-1.812,5.75-6.644c4.842-5.62,11.482-13.43,18.638-22.2l4.176-5.149.062-.077.1-.009,24.413-2.091,7.22-.573,1.946-.132a3.99,3.99,0,0,1,.678-.018" fill="#263238"/>
            <path id="Trazado_838713" data-name="Trazado 838713" d="M97.863,156.669a.735.735,0,0,1,.117-.174l.381-.482,1.5-1.821,5.571-6.643,18.517-21.8,4.36-5.1.061-.071.093-.009,23.959-2.215,7.081-.607,1.908-.143a3.969,3.969,0,0,1,.665-.021,3.983,3.983,0,0,1-.657.1c-.471.056-1.1.13-1.9.222l-7.068.747L128.5,121.024l.153-.08-4.354,5.107-18.622,21.713L100,154.31l-1.563,1.764c-.167.181-.3.329-.416.452-.1.1-.148.148-.154.143" fill="#263238"/>
            <path id="Trazado_838714" data-name="Trazado 838714" d="M146.363,138.92c-2.207-.327-4.166-.752-6.373-1.08a7.035,7.035,0,0,0-1.987-.1,2.442,2.442,0,0,0-1.705.972,1.362,1.362,0,0,0-.165,1.171,1.394,1.394,0,0,0,.487.5,3,3,0,0,0,1.365.452l5.145,1.022a6.722,6.722,0,0,0,3.08.129,2.1,2.1,0,0,0,.965-.531,1.425,1.425,0,0,0,.414-1.069,1.578,1.578,0,0,0-1.226-1.458" fill="#ffc09d"/>
            <path id="Trazado_838715" data-name="Trazado 838715" d="M145.644,142.4c-1.938-.337-3.663-.769-5.6-1.106a5.384,5.384,0,0,0-1.738-.113,2,2,0,0,0-1.461.962,1.341,1.341,0,0,0-.141,1.1,1.177,1.177,0,0,0,.366.486,3.016,3.016,0,0,0,1.313.539l4.527,1.042a5.2,5.2,0,0,0,2.7.144,1.7,1.7,0,0,0,.827-.526,1.49,1.49,0,0,0,.33-1.064,1.615,1.615,0,0,0-1.117-1.46" fill="#ffc09d"/>
            <path id="Trazado_838716" data-name="Trazado 838716" d="M144.014,144.854c-1.568-.168-2.986-.448-4.554-.616a3.428,3.428,0,0,0-1.372.034,1.442,1.442,0,0,0-.965,1.065,1.621,1.621,0,0,0,.085,1.086,1.3,1.3,0,0,0,.371.446,2.309,2.309,0,0,0,1.117.418l3.707.644a3.3,3.3,0,0,0,2.122-.085,1.212,1.212,0,0,0,.55-.584,1.686,1.686,0,0,0,.067-1.07,1.756,1.756,0,0,0-1.128-1.338" fill="#ffc09d"/>
            <path id="Trazado_838717" data-name="Trazado 838717" d="M146.25,142.42a20.478,20.478,0,0,1-4.56-.695,20.511,20.511,0,0,1-4.454-1.206,20.721,20.721,0,0,1,4.561.7,20.708,20.708,0,0,1,4.453,1.205" fill="#ff9b6c"/>
            <path id="Trazado_838718" data-name="Trazado 838718" d="M145.23,145.6a14.055,14.055,0,0,1-3.773-.451,14.034,14.034,0,0,1-3.676-.962,13.96,13.96,0,0,1,3.773.451,14.035,14.035,0,0,1,3.676.962" fill="#ff9b6c"/>
          </g>
        </g>
        <path id="Trazado_838719" data-name="Trazado 838719" d="M159.22,125.779l-41.769,38.109-.022,180.521H217.935l.206-219.056Z" fill="#263238"/>
        <path id="Trazado_838720" data-name="Trazado 838720" d="M115.112,164.322l44.108-39.693,63.312-.207V131.9l-60.806.207-46.614,41.815Z" fill="#263238"/>
        <g id="Grupo_1072088" data-name="Grupo 1072088">
          <g id="Grupo_1072087" data-name="Grupo 1072087" clip-path="url(#clip-path-4)">
            <path id="Trazado_838721" data-name="Trazado 838721" d="M162.074,342.487c-.145,0-.339-47.1-.435-105.185-.1-58.106-.058-105.2.086-105.2s.338,47.088.435,105.194c.1,58.086.057,105.186-.086,105.186" fill="#455a64"/>
            <path id="Trazado_838722" data-name="Trazado 838722" d="M217.935,342.487c-.144,0-.26-47.1-.26-105.185,0-58.106.116-105.2.26-105.2s.26,47.089.26,105.2c0,58.086-.116,105.185-.26,105.185" fill="#455a64"/>
            <path id="Trazado_838723" data-name="Trazado 838723" d="M222.532,131.9a1.406,1.406,0,0,1-.313.027l-.918.029-3.534.061-13.01.126-43.03.224.172-.066-.672.6-32.538,29.085-9.9,8.77-2.709,2.365-.713.6a1.537,1.537,0,0,1-.255.193,1.4,1.4,0,0,1,.219-.233c.174-.164.4-.377.679-.644l2.644-2.437,9.789-8.893c8.323-7.491,19.779-17.8,32.436-29.2l.673-.6.074-.066h.1l43.031-.069,13.01.038,3.534.036.919.023a1.43,1.43,0,0,1,.313.025" fill="#455a64"/>
            <path id="Trazado_838724" data-name="Trazado 838724" d="M213.2,124.452V90.278a13.057,13.057,0,0,0-7.186-11.663L198.241,74.7" fill="none" stroke="#263238" stroke-miterlimit="10" stroke-width="1"/>
            <path id="Trazado_838725" data-name="Trazado 838725" d="M196.544,77.388l-4.916-2.337a3.2,3.2,0,0,1-1.513-4.258l.077-.165a3.2,3.2,0,0,1,4.259-1.514l4.916,2.337a3.2,3.2,0,0,1,1.513,4.258l-.079.165a3.194,3.194,0,0,1-4.257,1.514" fill="#263238"/>
          </g>
        </g>
      </g>
    </g>
  </g>
</svg>
