<svg xmlns="http://www.w3.org/2000/svg" width="141" height="141" viewBox="0 0 141 141">
  <g id="Grupo_1071995" data-name="Grupo 1071995" transform="translate(-269 -958)">
    <path id="Trazado_609142" data-name="Trazado 609142" d="M70.5,0A70.5,70.5,0,1,1,0,70.5,70.5,70.5,0,0,1,70.5,0Z" transform="translate(269 958)" fill="#0a5e6b"/>
    <g id="Grupo_1072101" data-name="Grupo 1072101" transform="translate(299.718 982.498)">
      <path id="Trazado_838727" data-name="Trazado 838727" d="M296.956,111.021l2.865,1.791a1.344,1.344,0,0,0,1.424-2.278l-2.866-1.791a1.344,1.344,0,0,0-1.423,2.278Zm0,0" transform="translate(-243.089 -89.027)" fill="#fff"/>
      <path id="Trazado_838728" data-name="Trazado 838728" d="M299.71,5.376a1.339,1.339,0,0,0,.711-.2l2.865-1.791A1.344,1.344,0,0,0,301.863,1.1L299,2.893a1.354,1.354,0,0,0,.712,2.483Zm0,0" transform="translate(-244.772 -0.728)" fill="#fff"/>
      <path id="Trazado_838729" data-name="Trazado 838729" d="M310.219,61.093a1.343,1.343,0,0,0,1.343,1.343h3.582a1.344,1.344,0,0,0,0-2.686h-3.582a1.342,1.342,0,0,0-1.343,1.343Zm0,0" transform="translate(-254.475 -49.013)" fill="#fff"/>
      <path id="Trazado_838730" data-name="Trazado 838730" d="M137.371,108.745l-2.866,1.791a1.344,1.344,0,0,0,1.424,2.278l2.866-1.791A1.344,1.344,0,0,0,137.371,108.745Zm0,0" transform="translate(-109.83 -89.029)" fill="#fff"/>
      <path id="Trazado_838731" data-name="Trazado 838731" d="M132.5,3.379l2.865,1.791a1.344,1.344,0,0,0,1.424-2.278L133.926,1.1A1.344,1.344,0,0,0,132.5,3.379Zm0,0" transform="translate(-108.186 -0.727)" fill="#fff"/>
      <path id="Trazado_838732" data-name="Trazado 838732" d="M117.406,62.436h3.582a1.344,1.344,0,0,0,0-2.686h-3.582A1.344,1.344,0,0,0,117.406,62.436Zm0,0" transform="translate(-95.243 -49.013)" fill="#fff"/>
      <path id="Trazado_838733" data-name="Trazado 838733" d="M170.618,22.407v1.665a3.649,3.649,0,0,0,1.46,2.916v3.661a1.343,1.343,0,0,0,1.343,1.343h5.521a1.343,1.343,0,0,0,1.343-1.343V26.988a3.646,3.646,0,0,0,1.46-2.916V22.407a11.905,11.905,0,0,0,6.26-11.817,1.344,1.344,0,0,0-2.67.293,9.22,9.22,0,0,1-5.471,9.451,1.345,1.345,0,0,0-.805,1.231v2.507a.97.97,0,0,1-.969.969h-3.816a.971.971,0,0,1-.969-.969V21.565a1.342,1.342,0,0,0-.805-1.23,9.208,9.208,0,1,1,8.839-16.069,1.344,1.344,0,0,0,1.506-2.224,11.895,11.895,0,1,0-12.227,20.366Zm4.147,6.9V27.727H177.6v1.579Zm0,0" transform="translate(-134.767 0)" fill="#fff"/>
      <path id="Trazado_838734" data-name="Trazado 838734" d="M72.786,101.325l.006-.008,6.578-10.909a1.366,1.366,0,0,0,.193-.7l-.091-13.577a1.355,1.355,0,0,0-1.963-1.183L65.456,81.207c-.779.405-1.177,1.57-1.594,2.261L53.82,100.117a11.7,11.7,0,0,0-2.408.684,11.69,11.69,0,0,0-20.357,0,11.736,11.736,0,0,0-2.208-.651L14.937,77.079a4.727,4.727,0,0,0-6.494-1.6L2.283,79.2a4.743,4.743,0,0,0-1.6,6.5l14.458,23.977a11.7,11.7,0,0,0-.105,3.139A11.689,11.689,0,0,0,17.644,135.9h4.071a1.344,1.344,0,0,0,0-2.686H17.644a9,9,0,0,1-.934-17.953,1.356,1.356,0,0,0,1.172-1.633,9,9,0,0,1,8.775-11,9.23,9.23,0,0,1,7.384,3.829,1.344,1.344,0,0,0,2.129-1.638,14.3,14.3,0,0,0-2.759-2.721,9,9,0,0,1,16.139,1,1.356,1.356,0,0,0,1.894.658,9,9,0,0,1,13.368,7.869,8.858,8.858,0,0,1-.063,1.045,9.638,9.638,0,0,0-5.349,2.238,1.344,1.344,0,0,0,1.9,1.9,7.591,7.591,0,0,1,4.642-1.524c4.591,0,8.246,4.562,8.246,8.922a9.01,9.01,0,0,1-9,9h-15.6l3.211-3.986a1.364,1.364,0,0,0-1.011-2.185l-7.033-.185,4.716-12.188a1.356,1.356,0,0,0-1.236-1.828l-9.783-.122a1.335,1.335,0,0,0-1.28.887L29.825,133.96a1.364,1.364,0,0,0,1.2,1.937h6.359l-5.936,15.656a1.352,1.352,0,0,0,2.3,1.319l13.691-17a1.349,1.349,0,0,0,.239.022h17.5a11.686,11.686,0,0,0,2.257-23.152c.069-.722-.263-2.13.088-2.71Zm-56.536,5L2.979,84.312A2.052,2.052,0,0,1,3.674,81.5l6.159-3.725a2.038,2.038,0,0,1,2.8.692l1.395,2.312-2.523,1.526A1.343,1.343,0,0,0,12.9,84.6l2.519-1.524L18.141,87.6,14.1,90.038a1.343,1.343,0,0,0,1.391,2.3L19.528,89.9l2.723,4.516-2.523,1.525a1.343,1.343,0,1,0,1.391,2.3l2.519-1.524,1.976,3.277a11.7,11.7,0,0,0-9.364,6.33Zm24.341,28.707a1.343,1.343,0,0,0-1.239-1.819l-6.37-.08,6.395-17.712,6.894.086-4.706,12.162a1.343,1.343,0,0,0,1.218,1.828l6.224.163-12.05,14.959ZM57.025,100l3.7-6.133.008-.011L66.313,84.6l3.14,3.313-8.147,13.4A11.611,11.611,0,0,0,57.025,100ZM71.851,86.541l-3.574-3.772,5.451-2.832,3.1,1.866.041,6.138ZM76.8,78.653l-.281-.168.279-.145Zm-13.287,24.2L71.755,89.3l4.4,1.229L66.405,106.7a11.751,11.751,0,0,0-2.888-3.849Zm0,0" transform="translate(0 -61.352)" fill="#fff"/>
    </g>
  </g>
</svg>
