<svg xmlns="http://www.w3.org/2000/svg" width="85.648" height="90.176" viewBox="0 0 85.648 90.176">
  <g id="Grupo_1072124" data-name="Grupo 1072124" transform="translate(-12.854)">
    <path id="Trazado_838763" data-name="Trazado 838763" d="M91.809,8.19A1.321,1.321,0,1,0,93.13,9.511,1.321,1.321,0,0,0,91.809,8.19ZM86.525,0c-6.6,0-11.976,4.266-11.976,9.511a7.954,7.954,0,0,0,1.067,3.936L73.5,15.564a2.025,2.025,0,0,0,1.432,3.458H86.526c6.6,0,11.976-4.266,11.976-9.511S93.129,0,86.525,0Zm0,16.38H76.419l1.4-1.4a2.041,2.041,0,0,0,.276-2.541,5.316,5.316,0,0,1-.9-2.928c0-3.788,4.188-6.869,9.335-6.869S95.86,5.723,95.86,9.511,91.672,16.38,86.525,16.38Zm0-8.19a1.321,1.321,0,1,0,1.321,1.321A1.321,1.321,0,0,0,86.525,8.19Zm3.486,55.5H88.69V47.823a5.687,5.687,0,0,0-1.679-4.05l-1.966-1.964a3.989,3.989,0,0,0-.772-4.507L80.382,33.41a3.963,3.963,0,0,0-5.6,5.6l3.892,3.892a3.953,3.953,0,0,0,4.507.77l1.968,1.966a3.061,3.061,0,0,1,.9,2.18V63.69h-4.46V55.983a14.529,14.529,0,0,0-3.71-9.626c-2.434-2.726-5.479-4.059-8.94-4.96-2.417-.629-4.805-1.374-7.211-2.043A2.49,2.49,0,0,1,59.952,36.7a13.261,13.261,0,0,0,6.372-8.645,5.485,5.485,0,0,0,5.594-5.4,5.4,5.4,0,0,0-5.284-5.394V6.6a6.612,6.612,0,0,0-6.6-6.6H46.8a6.612,6.612,0,0,0-6.6,6.6V9.322a1.321,1.321,0,1,0,2.642,0V6.6A3.967,3.967,0,0,1,46.8,2.642h13.23A3.967,3.967,0,0,1,63.992,6.6V17.2A6.326,6.326,0,0,1,61.5,16.28a6.42,6.42,0,0,1-2.035-2.1,2.022,2.022,0,0,0-3.08-.47,16.235,16.235,0,0,1-6.014,3.379,16.086,16.086,0,0,1-7.54.433V15.486a1.321,1.321,0,1,0-2.642,0V17.27a5.4,5.4,0,1,0,.31,10.79A13.26,13.26,0,0,0,46.876,36.7,2.527,2.527,0,0,1,45.1,39.346c-2.427.684-4.866,1.324-7.291,2.013a21.1,21.1,0,0,0-5.727,2.25,14.829,14.829,0,0,0-6.345,8.6,14.519,14.519,0,0,0-.5,3.776V63.69H20.78V47.823a3.062,3.062,0,0,1,.9-2.18l1.968-1.966a3.956,3.956,0,0,0,4.507-.77l3.892-3.892a4.016,4.016,0,0,0,0-5.6,3.967,3.967,0,0,0-5.6,0L22.554,37.3a3.979,3.979,0,0,0-.772,4.507l-1.966,1.964a5.687,5.687,0,0,0-1.679,4.05V63.69H16.817a3.967,3.967,0,0,0-3.963,3.963v5.1a3.967,3.967,0,0,0,3.963,3.963H20.48L24,89.213a1.321,1.321,0,0,0,1.271.963,1.335,1.335,0,0,0,1.272-1.68L23.225,76.715H65.058a1.321,1.321,0,1,0,0-2.642H16.817A1.323,1.323,0,0,1,15.5,72.753v-5.1a1.322,1.322,0,0,1,1.321-1.321H90.011a1.322,1.322,0,0,1,1.321,1.321v5.1a1.323,1.323,0,0,1-1.321,1.321H71.222a1.321,1.321,0,1,0,0,2.642H83.6L80.282,88.5a1.321,1.321,0,1,0,2.543.717l3.523-12.5h3.664a3.967,3.967,0,0,0,3.963-3.963v-5.1a3.967,3.967,0,0,0-3.963-3.963ZM82.406,41.038a1.322,1.322,0,0,1-1.868,0l-3.892-3.892a1.321,1.321,0,0,1,1.868-1.868l3.892,3.892a1.335,1.335,0,0,1,0,1.868ZM66.634,19.915a2.756,2.756,0,0,1,2.642,2.749,2.786,2.786,0,0,1-2.647,2.749c0-.172.01-5.311,0-5.5ZM37.552,22.664a2.756,2.756,0,0,1,2.642-2.749c0,.187,0,5.327,0,5.5A2.774,2.774,0,0,1,37.552,22.664ZM24.422,39.17l3.892-3.892a1.321,1.321,0,1,1,1.868,1.868l-3.892,3.892a1.321,1.321,0,0,1-1.868-1.868ZM42.836,25.222V20.2a18.72,18.72,0,0,0,8.308-.584A18.872,18.872,0,0,0,57.6,16.144a8.937,8.937,0,0,0,6.389,3.722v5.356a10.578,10.578,0,1,1-21.156,0Zm16.721,16a9.407,9.407,0,0,1-12.291,0,5.109,5.109,0,0,0,2.183-3.382,13.227,13.227,0,0,0,7.929,0A5.109,5.109,0,0,0,59.557,41.22ZM37.807,63.69V61.069a1.321,1.321,0,0,0-2.642,0V63.69H27.881V55.981c-.005-6.269,4.4-10.5,10.206-11.913l1.647,4.941-1.214,1a2.554,2.554,0,0,0-.7,3.047L42.747,63.69Zm7.851,0L40.248,52l1.209-.992a2.568,2.568,0,0,0,.8-2.782l-1.627-4.88,3.309-.933L48.11,63.69H45.658Zm10.368,0H50.8L47,44.3a12.085,12.085,0,0,0,12.821,0Zm5.144,0H58.718l4.168-21.267,3.309.931-1.625,4.877a2.568,2.568,0,0,0,.8,2.782L66.58,52Zm17.777,0H71.663V61.069a1.321,1.321,0,0,0-2.642,0V63.69h-4.94l4.925-10.637a2.554,2.554,0,0,0-.7-3.047l-1.214-1L68.74,44.07c5.7,1.366,10.217,5.555,10.207,11.912Zm2.295-55.5a1.321,1.321,0,1,0,1.321,1.321A1.321,1.321,0,0,0,81.242,8.19Z" fill="#0a5e6b"/>
  </g>
</svg>
